<svg width="342" height="210" viewBox="0 0 342 210" fill="none" xmlns="http://www.w3.org/2000/svg">
  <defs>
    <clipPath id="clip0_501_12712">
      <path d="M0 24C0 10.7452 10.7452 0 24 0H318C331.255 0 342 10.7452 342 24V186C342 199.255 331.255 210 318 210H24C10.7452 210 0 199.255 0 186V24Z" fill="white"/>
    </clipPath>
  </defs>
  <g clip-path="url(#clip0_501_12712)">
    <path d="M0 24C0 10.7452 10.7452 0 24 0H318C331.255 0 342 10.7452 342 24V186C342 199.255 331.255 210 318 210H24C10.7452 210 0 199.255 0 186V24Z" fill="#02003D"/>
    <g opacity="0.1">
      <path d="M54.2052 213.063C52.0277 214.518 49.8027 214.803 47.6442 213.13C45.4953 211.466 45.2957 209.203 46.1229 206.417C43.3084 207.025 40.7696 207.007 39.0961 204.496C37.6698 202.347 38.0121 200.236 39.4193 198.211C39.5905 198.04 39.7712 197.869 39.9423 197.698C40.9502 196.975 42.1198 196.271 43.2893 196.509C45.4287 196.937 45.0389 195.948 45.153 194.436C45.3147 192.354 45.0864 191.498 42.7568 191.831C41.9106 191.954 40.9312 191.194 40.0089 190.842C39.7617 190.595 39.5144 190.348 39.2672 190.1C38.0311 188.027 37.6508 185.907 39.1531 183.815C40.8171 181.486 43.1752 181.286 46.0658 182.066C45.3337 179.213 45.4383 176.712 47.9485 175.058C50.0879 173.641 52.1988 174.002 54.2146 175.4C54.3858 175.571 54.557 175.752 54.7281 175.923C55.137 176.931 56.0308 178.024 55.8786 178.947C55.4602 181.419 56.6393 180.972 58.3509 181.115C60.4142 181.286 60.5854 180.725 60.5283 178.966C60.4998 177.967 61.2795 176.95 61.6979 175.942C61.8786 175.752 62.0592 175.571 62.2399 175.381C64.3983 173.86 66.6233 173.603 68.7913 175.257C70.9497 176.902 71.2065 179.156 70.3697 181.923C73.1177 181.447 75.685 181.333 77.3585 183.863C78.7848 186.012 78.4615 188.113 77.1017 190.167C76.8925 190.376 76.6834 190.576 76.4742 190.785C75.4473 191.184 74.3728 192.012 73.4124 191.897C71.3205 191.66 71.3396 192.401 71.3681 194.179C71.3966 195.9 71.292 196.728 73.4124 196.49C74.3823 196.385 75.4473 197.213 76.4742 197.612C76.6834 197.821 76.9021 198.03 77.1112 198.249C78.5565 200.408 78.8418 202.633 77.1778 204.781C75.5328 206.911 73.3078 207.254 70.5218 206.341C71.0923 209.212 70.9973 211.837 68.3349 213.491C66.3 214.756 64.2747 214.414 62.335 213.168C62.0687 212.902 61.812 212.645 61.5457 212.379C60.5188 210.857 60.2526 209.165 60.5378 207.396C57.6187 207.064 55.194 207.149 55.4888 211.019C55.5268 211.485 55.0134 211.989 54.7472 212.474C54.5855 212.674 54.3953 212.873 54.2052 213.063ZM68.1922 204.154C66.5187 203.136 70.0369 199.942 66.3 199.932C64.3888 199.923 63.9514 200.579 63.9609 202.338C63.9894 206.037 67.1368 202.537 68.1922 204.154ZM48.3669 204.201C49.3938 202.794 53.1307 206.122 52.4841 201.568C51.9707 197.945 49.66 200.797 48.3954 199.866C48.9089 201.368 48.3574 202.633 48.3669 204.201ZM68.3158 184.319C63.8944 184.775 63.999 184.795 63.8754 185.821C63.438 189.387 66.1289 188.17 68.2303 188.731C67.6027 187.077 68.0876 185.726 68.3158 184.319ZM48.3289 184.129C48.5761 185.736 48.7282 187.124 48.481 188.674C49.6981 187.581 52.1418 190.281 52.5601 186.687C53.0641 182.246 49.3178 185.774 48.3289 184.129ZM56.5347 193.932C56.6108 194.883 55.8977 196.224 57.8279 195.853C58.8073 195.663 60.0719 196.357 59.9008 194.322C59.7867 192.943 59.7201 192.401 58.1322 192.506C56.9436 192.572 56.0878 192.458 56.5347 193.932Z" fill="white"/>
      <path d="M54.7378 175.933C54.5667 175.762 54.3955 175.581 54.2243 175.41C54.1958 175.191 54.2244 174.944 54.1388 174.754C53.0168 172.272 52.9787 169.923 55.2798 168.117C57.153 166.643 59.2639 166.633 61.1561 168.098C63.4762 169.895 63.4381 172.243 62.3447 174.725C62.2591 174.925 62.2781 175.163 62.2495 175.381C62.0689 175.571 61.8882 175.752 61.7075 175.942C59.378 176.884 57.0579 176.855 54.7378 175.933Z" fill="white"/>
      <path d="M77.1303 198.25C76.9212 198.041 76.7025 197.832 76.4933 197.613C75.5139 195.34 75.5329 193.058 76.4933 190.786C76.7025 190.577 76.9116 190.377 77.1208 190.168C77.8625 189.94 78.5852 189.654 79.3459 189.502C81.4948 189.093 83.3489 189.616 84.585 191.527C85.7165 193.277 85.7166 195.112 84.5945 196.862C83.3679 198.782 81.5138 199.305 79.3648 198.897C78.5946 198.763 77.872 198.478 77.1303 198.25Z" fill="white"/>
      <path d="M39.9518 197.707C39.7806 197.878 39.6 198.05 39.4288 198.221C36.7094 199.086 33.9804 199.866 31.9551 196.937C30.776 195.235 30.7475 193.371 31.879 191.622C33.8093 188.627 36.5478 189.292 39.2957 190.119C39.543 190.367 39.7902 190.614 40.0374 190.861C40.9217 193.143 40.8361 195.425 39.9518 197.707Z" fill="white"/>
      <path d="M85.1938 208.994C85.2509 211.514 82.9783 213.786 80.4586 213.739C78.0719 213.691 75.9325 211.561 75.885 209.175C75.8279 206.645 78.0909 204.382 80.6202 204.44C83.0069 204.478 85.1368 206.598 85.1938 208.994Z" fill="white"/>
      <path d="M35.9585 213.691C33.4673 213.719 31.2233 211.437 31.3088 208.956C31.3849 206.578 33.5053 204.496 35.8825 204.468C38.3737 204.439 40.6082 206.721 40.5322 209.203C40.4561 211.58 38.3357 213.672 35.9585 213.691Z" fill="white"/>
      <path d="M80.2781 183.977C77.7583 183.816 75.6664 181.391 75.9136 178.919C76.1608 176.523 78.4334 174.554 80.7915 174.707C83.3113 174.868 85.4127 177.293 85.156 179.765C84.9087 182.161 82.6362 184.12 80.2781 183.977Z" fill="white"/>
      <path d="M35.7587 174.725C38.1073 174.63 40.3323 176.627 40.5224 179.014C40.7221 181.477 38.5922 183.854 36.082 183.958C33.6002 184.053 31.3087 181.838 31.3087 179.337C31.3087 176.969 33.3815 174.821 35.7587 174.725Z" fill="white"/>
      <path d="M77.7389 171.92C77.7294 174.44 75.4188 176.655 72.9086 176.541C70.5124 176.427 68.4491 174.268 68.4586 171.882C68.4681 169.362 70.7882 167.146 73.2889 167.261C75.6851 167.375 77.7484 169.543 77.7389 171.92Z" fill="white"/>
      <path d="M43.375 167.29C45.8757 167.299 48.0817 169.61 47.9676 172.091C47.8535 174.469 45.7046 176.532 43.3369 176.513C40.8362 176.503 38.6302 174.193 38.7443 171.711C38.8584 169.334 41.0168 167.28 43.375 167.29Z" fill="white"/>
      <path d="M87.9703 205.97C85.3554 205.742 83.8245 204.373 83.6914 201.72C83.5678 199.191 85.6217 197.175 88.1509 197.365C90.7943 197.565 92.2872 199.105 92.2397 201.739C92.1921 204.392 90.5756 205.752 87.9703 205.97Z" fill="white"/>
      <path d="M32.754 201.596C32.5543 204.221 31.2231 205.828 28.5322 205.847C25.8698 205.866 24.3103 204.363 24.2818 201.691C24.2533 199.029 25.7651 197.479 28.437 197.432C31.1184 197.403 32.4972 198.972 32.754 201.596Z" fill="white"/>
      <path d="M87.9037 191.099C85.2794 190.823 83.777 189.425 83.6914 186.772C83.6153 184.243 85.7072 182.265 88.2365 182.494C90.8799 182.741 92.3347 184.319 92.2491 186.944C92.1445 189.596 90.4901 190.918 87.9037 191.099Z" fill="white"/>
      <path d="M28.6557 182.503C31.2705 182.826 32.7919 184.272 32.6873 186.934C32.5827 189.606 30.9662 191.061 28.3228 190.975C25.6509 190.88 24.1961 189.264 24.2817 186.611C24.3673 183.92 26.0313 182.646 28.6557 182.503Z" fill="white"/>
      <path d="M55.0894 164.361C54.8136 167.156 53.4159 168.725 50.7345 168.678C48.0625 168.63 46.5412 167.061 46.5697 164.399C46.6077 161.727 48.1766 160.215 50.8485 160.234C53.568 160.253 54.8422 161.927 55.0894 164.361Z" fill="white"/>
      <path d="M69.9706 164.513C69.7234 167.128 68.3447 168.63 65.6918 168.725C63.1625 168.811 61.2038 166.776 61.4035 164.246C61.6222 161.613 63.1721 160.158 65.7964 160.224C68.4588 160.291 69.7805 161.917 69.9706 164.513Z" fill="white"/>
      <path d="M95.6813 190.291C97.7637 190.624 99.1804 191.879 99.3041 194.218C99.4182 196.329 97.2312 198.392 95.1583 198.107C92.8763 197.793 91.5356 196.376 91.507 194.037C91.488 192.04 93.5133 190.234 95.6813 190.291Z" fill="white"/>
      <path d="M24.957 194.18C24.5767 196.585 23.3025 198.088 20.9634 198.021C18.6433 197.954 17.179 196.443 17.2361 194.123C17.2931 191.802 18.805 190.348 21.1346 190.395C23.4832 190.443 24.6528 192.031 24.957 194.18Z" fill="white"/>
      <path d="M58.1704 153.122C60.462 153.388 62.0118 154.614 62.0594 156.963C62.0974 159.302 60.6331 160.814 58.3035 160.862C55.9644 160.909 54.4525 159.435 54.3955 157.106C54.3384 154.757 55.8598 153.483 58.1704 153.122Z" fill="white"/>
      <path d="M39.8094 164.409C39.5526 166.681 38.3355 168.231 36.0059 168.279C33.6763 168.326 32.1644 166.862 32.1169 164.551C32.0599 162.231 33.5242 160.719 35.8443 160.653C38.1739 160.596 39.448 162.098 39.8094 164.409Z" fill="white"/>
      <path d="M80.4776 160.529C82.7787 160.805 84.3476 162.031 84.3951 164.38C84.4427 166.728 82.9593 168.259 80.6202 168.307C78.2716 168.364 76.7502 166.871 76.6836 164.541C76.6266 162.183 78.1575 160.909 80.4776 160.529Z" fill="white"/>
      <path d="M88.0272 175.837C85.7261 175.562 84.1667 174.326 84.1191 171.977C84.0811 169.628 85.5645 168.107 87.894 168.05C90.2427 168.002 91.764 169.486 91.8211 171.825C91.8781 174.183 90.3473 175.467 88.0272 175.837Z" fill="white"/>
      <path d="M32.3831 171.787C32.1169 174.117 30.8998 175.667 28.5702 175.714C26.2406 175.762 24.7287 174.297 24.6811 171.987C24.6241 169.657 26.098 168.155 28.4085 168.098C30.7476 168.031 32.0028 169.553 32.3831 171.787Z" fill="white"/>
      <path d="M95.5199 175.762C97.802 175.999 99.0476 177.255 98.9335 179.537C98.8194 181.847 97.3741 182.998 95.1206 182.865C93.0001 182.741 91.8401 181.419 91.8686 179.308C91.9067 176.988 93.2664 175.876 95.5199 175.762Z" fill="white"/>
      <path d="M95.5104 212.693C93.1332 212.474 91.8305 211.295 91.859 209.032C91.8971 206.769 93.2092 205.504 95.4628 205.533C97.7258 205.561 98.9715 206.883 98.962 209.136C98.9525 211.428 97.5547 212.493 95.5104 212.693Z" fill="white"/>
      <path d="M20.9062 212.616C18.6622 212.359 17.4355 211.114 17.5591 208.851C17.6923 206.559 19.1185 205.437 21.3531 205.589C23.4544 205.732 24.586 207.035 24.548 209.136C24.5004 211.437 23.1407 212.512 20.9062 212.616Z" fill="white"/>
      <path d="M73.099 153.474C75.3525 153.645 76.6647 154.824 76.6077 157.115C76.5601 159.416 75.2004 160.615 72.9373 160.548C70.8264 160.481 69.6189 159.236 69.5904 157.125C69.5523 154.824 70.8455 153.645 73.099 153.474Z" fill="white"/>
      <path d="M21.2769 182.883C18.8903 182.741 17.5495 181.628 17.5495 179.337C17.559 177.055 18.8522 175.819 21.1248 175.838C23.2261 175.857 24.4528 177.055 24.5384 179.166C24.6429 181.467 23.3498 182.617 21.2769 182.883Z" fill="white"/>
      <path d="M46.8932 157.173C46.6365 159.417 45.3908 160.643 43.1278 160.52C40.8362 160.386 39.7142 158.96 39.8664 156.726C40.009 154.624 41.3117 153.493 43.4131 153.531C45.7141 153.578 46.7886 154.938 46.8932 157.173Z" fill="white"/>
      <path d="M102.823 204.877C100.788 204.477 99.5326 203.365 99.7133 201.406C99.8844 199.504 101.197 198.316 103.174 198.515C104.943 198.696 106.065 199.923 106.008 201.72C105.932 203.688 104.591 204.639 102.823 204.877Z" fill="white"/>
      <path d="M13.6228 204.753C11.7211 204.553 10.504 203.508 10.5515 201.539C10.5895 199.742 11.7496 198.592 13.5467 198.582C15.515 198.573 16.713 199.78 16.6655 201.748C16.637 203.546 15.4675 204.544 13.6228 204.753Z" fill="white"/>
      <path d="M65.5678 146.446C67.2983 146.56 68.563 147.454 68.7341 149.261C68.9243 151.248 67.7738 152.56 65.8245 152.665C63.8563 152.769 62.6011 151.552 62.5726 149.575C62.5536 147.777 63.7136 146.741 65.5678 146.446Z" fill="white"/>
      <path d="M106.055 186.668C105.865 188.56 104.867 189.881 102.908 189.919C100.959 189.957 99.7226 188.702 99.6941 186.753C99.6751 184.956 100.854 183.748 102.613 183.634C104.581 183.492 105.684 184.718 106.055 186.668Z" fill="white"/>
      <path d="M13.5277 183.663C15.2392 183.768 16.4848 184.642 16.656 186.449C16.8366 188.417 15.7146 189.72 13.7749 189.825C11.8161 189.929 10.58 188.731 10.5515 186.763C10.5325 184.966 11.664 183.939 13.5277 183.663Z" fill="white"/>
      <path d="M53.9389 149.537C53.7962 151.287 52.8644 152.532 51.0673 152.675C49.0895 152.827 47.7868 151.658 47.7108 149.699C47.6442 147.731 48.8803 146.494 50.8581 146.504C52.6647 146.513 53.6726 147.693 53.9389 149.537Z" fill="white"/>
      <path d="M87.7038 154.186C89.7006 154.281 90.7845 155.184 90.7655 157.077C90.7465 158.779 89.7862 159.777 88.0841 159.815C86.2205 159.863 85.184 158.845 85.1745 156.972C85.1745 155.242 86.2204 154.414 87.7038 154.186Z" fill="white"/>
      <path d="M95.1585 161.604C97.1458 161.699 98.2393 162.611 98.2202 164.513C98.2012 166.225 97.2408 167.233 95.5198 167.271C93.6466 167.318 92.5912 166.291 92.5912 164.409C92.5912 162.668 93.6371 161.822 95.1585 161.604Z" fill="white"/>
      <path d="M31.2801 157.096C31.109 158.779 30.2342 159.797 28.5131 159.787C26.6209 159.778 25.6321 158.665 25.7462 156.811C25.8508 155.109 26.9347 154.206 28.6368 154.282C30.3483 154.348 31.1755 155.404 31.2801 157.096Z" fill="white"/>
      <path d="M83.1872 149.499C83.0446 151.039 82.2364 152.104 80.7055 152.18C78.994 152.266 77.9195 151.23 77.9385 149.518C77.9575 147.978 78.9749 147.008 80.5153 146.998C82.0842 146.979 82.921 147.997 83.1872 149.499Z" fill="white"/>
      <path d="M38.5543 149.603C38.3261 151.106 37.5179 152.152 35.987 152.161C34.304 152.171 33.2486 151.096 33.3532 149.413C33.4387 147.92 34.4752 146.95 36.0155 147.017C37.5464 147.074 38.3451 148.101 38.5543 149.603Z" fill="white"/>
      <path d="M21.1535 167.279C19.2898 167.08 18.2724 166.195 18.2914 164.474C18.3104 162.582 19.4325 161.603 21.2866 161.717C22.9887 161.831 23.8729 162.915 23.8064 164.617C23.7303 166.367 22.6083 167.118 21.1535 167.279Z" fill="white"/>
      <path d="M102.679 174.573C101.092 174.241 100.055 173.309 100.245 171.607C100.407 170.123 101.443 169.163 102.974 169.287C104.648 169.41 105.627 170.504 105.446 172.196C105.294 173.689 104.239 174.478 102.679 174.573Z" fill="white"/>
      <path d="M16.2184 171.977C15.9332 173.499 15.0774 174.516 13.518 174.45C11.9871 174.383 10.9982 173.366 11.0553 171.816C11.1123 170.285 12.1392 169.296 13.6891 169.353C15.2485 169.41 16.0473 170.456 16.2184 171.977Z" fill="white"/>
      <path d="M112.626 194.151C112.474 195.663 111.694 196.528 110.258 196.519C108.822 196.499 107.967 195.625 107.976 194.189C107.995 192.753 108.87 191.897 110.306 191.907C111.751 191.916 112.483 192.829 112.626 194.151Z" fill="white"/>
      <path d="M45.3529 142.168C45.2008 143.309 44.5827 144.088 43.4227 144.098C42.0915 144.107 41.3118 143.28 41.4164 141.958C41.5019 140.827 42.2911 140.123 43.4607 140.19C44.6207 140.266 45.2198 141.027 45.3529 142.168Z" fill="white"/>
      <path d="M60.4622 142.158C60.272 143.765 59.3782 144.488 57.9424 144.345C56.6398 144.212 55.9456 143.337 56.0312 142.035C56.1263 140.523 57.0771 139.829 58.5224 139.962C59.8346 140.085 60.4241 140.989 60.4622 142.158Z" fill="white"/>
      <path d="M75.1431 142.082C74.9054 143.508 74.1637 144.269 72.861 144.126C71.7485 144.003 71.0449 143.242 71.121 142.082C71.2065 140.77 72.0433 140.057 73.3365 140.18C74.487 140.285 75.0004 141.131 75.1431 142.082Z" fill="white"/>
      <path d="M8.17421 179.337C8.03158 180.478 7.42303 181.267 6.26298 181.286C4.93179 181.314 4.14262 180.497 4.2282 179.175C4.30427 178.044 5.07446 177.33 6.25352 177.387C7.42308 177.435 8.02208 178.196 8.17421 179.337Z" fill="white"/>
      <path d="M112.341 179.128C112.245 180.592 111.589 181.362 110.249 181.362C109.089 181.362 108.357 180.706 108.261 179.565C108.157 178.272 108.803 177.416 110.135 177.321C111.494 177.217 112.141 178.025 112.341 179.128Z" fill="white"/>
      <path d="M8.37405 194.218C8.27896 195.615 7.52779 196.433 6.05396 196.376C4.75129 196.328 4.00959 195.549 4.00008 194.256C3.99057 192.782 4.82736 191.993 6.29167 192.04C7.60386 192.078 8.26946 192.877 8.37405 194.218Z" fill="white"/>
      <path d="M8.1741 209.127C7.99344 210.268 7.37538 211.038 6.21534 211.029C4.88414 211.019 4.11393 210.183 4.23754 208.861C4.35165 207.739 5.14086 207.035 6.31992 207.121C7.46095 207.216 8.0695 207.977 8.1741 209.127Z" fill="white"/>
      <path d="M112.331 209.032C112.245 210.325 111.589 211.096 110.258 211.105C109.098 211.105 108.366 210.449 108.271 209.308C108.166 208.015 108.813 207.149 110.144 207.064C111.466 206.978 112.179 207.71 112.331 209.032Z" fill="white"/>
    </g>
    <g opacity="0.5">
      <path d="M167.908 127.976C166.003 129.249 164.057 129.498 162.17 128.034C160.29 126.579 160.116 124.6 160.839 122.164C158.378 122.696 156.157 122.679 154.694 120.484C153.446 118.604 153.746 116.758 154.976 114.987C155.126 114.837 155.284 114.688 155.434 114.538C156.315 113.906 157.338 113.291 158.361 113.498C160.232 113.873 159.891 113.008 159.991 111.686C160.132 109.864 159.933 109.116 157.895 109.407C157.155 109.515 156.299 108.85 155.492 108.542C155.276 108.326 155.06 108.11 154.843 107.894C153.762 106.081 153.43 104.226 154.744 102.397C156.199 100.359 158.261 100.185 160.789 100.867C160.149 98.372 160.24 96.1849 162.436 94.738C164.307 93.4989 166.153 93.8149 167.916 95.0373C168.066 95.187 168.215 95.345 168.365 95.4947C168.722 96.3762 169.504 97.3325 169.371 98.1391C169.005 100.301 170.036 99.9104 171.533 100.035C173.338 100.185 173.487 99.6942 173.438 98.1558C173.413 97.2826 174.095 96.3928 174.46 95.5113C174.618 95.345 174.776 95.187 174.934 95.0207C176.822 93.6902 178.768 93.4657 180.664 94.9126C182.552 96.3512 182.776 98.3221 182.044 100.742C184.448 100.326 186.693 100.226 188.157 102.438C189.404 104.318 189.121 106.156 187.932 107.952C187.749 108.135 187.566 108.309 187.383 108.492C186.485 108.842 185.545 109.565 184.705 109.465C182.876 109.257 182.893 109.906 182.918 111.461C182.943 112.966 182.851 113.69 184.705 113.482C185.554 113.39 186.485 114.114 187.383 114.463C187.566 114.646 187.757 114.829 187.94 115.02C189.204 116.908 189.454 118.854 187.999 120.733C186.56 122.596 184.614 122.895 182.177 122.097C182.676 124.608 182.593 126.904 180.265 128.35C178.485 129.456 176.714 129.157 175.018 128.068C174.785 127.835 174.56 127.61 174.327 127.378C173.429 126.047 173.196 124.567 173.446 123.02C170.893 122.729 168.772 122.804 169.03 126.188C169.063 126.596 168.614 127.037 168.382 127.461C168.24 127.635 168.074 127.81 167.908 127.976ZM180.14 120.184C178.676 119.295 181.753 116.5 178.485 116.492C176.814 116.484 176.431 117.058 176.44 118.596C176.464 121.831 179.217 118.771 180.14 120.184ZM162.802 120.226C163.7 118.995 166.968 121.906 166.402 117.922C165.953 114.754 163.933 117.249 162.827 116.434C163.276 117.748 162.793 118.854 162.802 120.226ZM180.248 102.838C176.381 103.237 176.473 103.253 176.365 104.151C175.982 107.27 178.336 106.205 180.173 106.696C179.625 105.249 180.049 104.068 180.248 102.838ZM162.768 102.671C162.985 104.077 163.118 105.291 162.901 106.646C163.966 105.69 166.103 108.052 166.469 104.908C166.91 101.025 163.633 104.11 162.768 102.671ZM169.945 111.245C170.011 112.076 169.388 113.249 171.076 112.925C171.932 112.758 173.038 113.365 172.889 111.586C172.789 110.38 172.731 109.906 171.342 109.997C170.303 110.056 169.554 109.956 169.945 111.245Z" fill="#7F5A4D"/>
      <path d="M168.373 95.5029C168.224 95.3532 168.074 95.1952 167.924 95.0455C167.899 94.8542 167.924 94.638 167.849 94.4717C166.868 92.3012 166.835 90.2473 168.847 88.6673C170.486 87.3783 172.332 87.37 173.986 88.6506C176.016 90.2223 175.982 92.2763 175.026 94.4467C174.951 94.6214 174.968 94.8293 174.943 95.0205C174.785 95.1868 174.627 95.3448 174.469 95.5112C172.431 96.3344 170.402 96.3095 168.373 95.5029Z" fill="#7F5A4D"/>
      <path d="M187.957 115.021C187.774 114.838 187.583 114.655 187.4 114.463C186.543 112.476 186.56 110.48 187.4 108.493C187.583 108.31 187.766 108.135 187.949 107.952C188.597 107.753 189.229 107.503 189.895 107.37C191.774 107.013 193.395 107.47 194.477 109.141C195.466 110.671 195.466 112.276 194.485 113.807C193.412 115.486 191.791 115.944 189.911 115.586C189.238 115.47 188.606 115.22 187.957 115.021Z" fill="#7F5A4D"/>
      <path d="M174.352 127.377C174.585 127.61 174.81 127.843 175.043 128.067C175.167 128.533 175.292 128.999 175.417 129.473C175.941 131.46 175.625 133.232 173.862 134.454C172.24 135.577 170.502 135.552 168.905 134.387C167.176 133.123 166.901 131.344 167.475 129.373C167.608 128.907 167.758 128.442 167.899 127.976C168.066 127.801 168.232 127.635 168.407 127.46C170.377 126.629 172.357 126.654 174.352 127.377Z" fill="#7F5A4D"/>
      <path d="M155.442 114.546C155.292 114.696 155.134 114.845 154.985 114.995C152.606 115.752 150.22 116.434 148.448 113.873C147.417 112.384 147.392 110.754 148.382 109.224C150.07 106.604 152.465 107.187 154.868 107.91C155.084 108.126 155.301 108.342 155.517 108.559C156.29 110.554 156.215 112.55 155.442 114.546Z" fill="#7F5A4D"/>
      <path d="M195.009 124.417C195.059 126.621 193.071 128.608 190.868 128.567C188.781 128.525 186.909 126.663 186.868 124.575C186.818 122.363 188.797 120.384 191.009 120.434C193.096 120.467 194.959 122.322 195.009 124.417Z" fill="#7F5A4D"/>
      <path d="M151.95 128.525C149.771 128.55 147.808 126.554 147.883 124.383C147.95 122.304 149.804 120.483 151.883 120.458C154.062 120.433 156.016 122.429 155.95 124.599C155.883 126.678 154.029 128.508 151.95 128.525Z" fill="#7F5A4D"/>
      <path d="M162.469 130.854C162.552 133.032 160.615 135.045 158.419 135.045C156.349 135.045 154.461 133.224 154.378 131.145C154.295 128.966 156.24 126.954 158.428 126.954C160.498 126.954 162.386 128.766 162.469 130.854Z" fill="#7F5A4D"/>
      <path d="M190.71 102.538C188.506 102.397 186.677 100.277 186.893 98.1145C187.109 96.0189 189.097 94.2975 191.159 94.4306C193.363 94.5719 195.2 96.6925 194.976 98.8546C194.76 100.95 192.772 102.663 190.71 102.538Z" fill="#7F5A4D"/>
      <path d="M151.775 94.4472C153.829 94.364 155.775 96.1104 155.941 98.1976C156.116 100.351 154.253 102.43 152.058 102.522C149.887 102.605 147.883 100.667 147.883 98.4804C147.883 96.4097 149.696 94.5303 151.775 94.4472Z" fill="#7F5A4D"/>
      <path d="M188.489 91.9935C188.481 94.1972 186.46 96.1348 184.265 96.035C182.169 95.9352 180.365 94.0475 180.373 91.9602C180.381 89.7565 182.41 87.8189 184.597 87.9187C186.693 88.0185 188.497 89.9145 188.489 91.9935Z" fill="#7F5A4D"/>
      <path d="M158.436 87.9439C160.623 87.9522 162.552 89.9729 162.452 92.1434C162.352 94.2223 160.473 96.0269 158.402 96.0102C156.215 96.0019 154.286 93.9812 154.386 91.8107C154.486 89.7318 156.373 87.9356 158.436 87.9439Z" fill="#7F5A4D"/>
      <path d="M188.489 130.945C188.522 133.14 186.527 135.111 184.331 135.053C182.244 134.995 180.398 133.132 180.373 131.045C180.34 128.841 182.327 126.879 184.531 126.937C186.626 126.995 188.464 128.858 188.489 130.945Z" fill="#7F5A4D"/>
      <path d="M161.163 137.265C161.488 134.979 162.785 133.748 165.088 133.773C167.292 133.798 168.905 135.669 168.623 137.881C168.332 140.193 166.885 141.357 164.606 141.191C162.278 141.033 161.23 139.519 161.163 137.265Z" fill="#7F5A4D"/>
      <path d="M197.437 121.773C195.15 121.573 193.811 120.375 193.695 118.055C193.587 115.843 195.383 114.08 197.595 114.247C199.907 114.421 201.212 115.768 201.171 118.072C201.129 120.392 199.716 121.581 197.437 121.773Z" fill="#7F5A4D"/>
      <path d="M149.147 117.947C148.973 120.242 147.808 121.648 145.455 121.664C143.127 121.681 141.763 120.367 141.738 118.03C141.713 115.702 143.035 114.347 145.372 114.305C147.717 114.28 148.923 115.652 149.147 117.947Z" fill="#7F5A4D"/>
      <path d="M181.712 137.456C181.546 139.726 180.381 141.157 178.053 141.223C175.749 141.29 174.377 140.001 174.178 137.697C173.987 135.485 175.725 133.673 177.945 133.747C180.273 133.839 181.479 135.161 181.712 137.456Z" fill="#7F5A4D"/>
      <path d="M197.379 108.767C195.084 108.525 193.77 107.303 193.695 104.983C193.629 102.771 195.458 101.041 197.67 101.241C199.982 101.457 201.254 102.837 201.179 105.133C201.088 107.453 199.641 108.609 197.379 108.767Z" fill="#7F5A4D"/>
      <path d="M145.563 101.249C147.85 101.532 149.18 102.796 149.089 105.124C148.997 107.461 147.584 108.733 145.272 108.658C142.935 108.575 141.663 107.162 141.738 104.841C141.812 102.488 143.268 101.374 145.563 101.249Z" fill="#7F5A4D"/>
      <path d="M168.681 85.3827C168.44 87.8275 167.217 89.1996 164.872 89.158C162.535 89.1165 161.205 87.7443 161.23 85.4159C161.263 83.0792 162.635 81.757 164.972 81.7736C167.35 81.7902 168.465 83.2538 168.681 85.3827Z" fill="#7F5A4D"/>
      <path d="M181.695 85.5155C181.479 87.8024 180.273 89.1163 177.953 89.1994C175.741 89.2743 174.028 87.4947 174.203 85.2827C174.394 82.9792 175.75 81.7069 178.045 81.7651C180.373 81.8233 181.529 83.2453 181.695 85.5155Z" fill="#7F5A4D"/>
      <path d="M152.016 140.924C149.97 140.691 148.607 139.618 148.565 137.573C148.524 135.527 149.812 134.205 151.842 134.155C153.887 134.105 155.209 135.394 155.268 137.431C155.326 139.477 153.987 140.583 152.016 140.924Z" fill="#7F5A4D"/>
      <path d="M171.483 147.443C169.471 147.211 168.099 146.13 168.057 144.075C168.016 142.021 169.313 140.683 171.35 140.633C173.404 140.583 174.735 141.88 174.793 143.926C174.851 145.996 173.512 147.111 171.483 147.443Z" fill="#7F5A4D"/>
      <path d="M204.181 108.06C206.002 108.351 207.241 109.449 207.349 111.495C207.449 113.341 205.536 115.145 203.723 114.896C201.728 114.621 200.555 113.382 200.53 111.337C200.514 109.59 202.285 108.01 204.181 108.06Z" fill="#7F5A4D"/>
      <path d="M142.328 111.461C141.995 113.565 140.881 114.879 138.835 114.821C136.806 114.762 135.526 113.44 135.576 111.411C135.626 109.382 136.948 108.11 138.985 108.151C141.039 108.193 142.062 109.582 142.328 111.461Z" fill="#7F5A4D"/>
      <path d="M171.375 75.5532C173.379 75.7861 174.735 76.8588 174.776 78.9128C174.81 80.9585 173.529 82.2807 171.492 82.3223C169.446 82.3639 168.124 81.0749 168.074 79.0375C168.024 76.9835 169.354 75.8692 171.375 75.5532Z" fill="#7F5A4D"/>
      <path d="M155.317 85.4248C155.093 87.4123 154.028 88.7677 151.991 88.8093C149.954 88.8509 148.631 87.5703 148.59 85.5495C148.54 83.5205 149.821 82.1983 151.85 82.14C153.887 82.0902 155.001 83.404 155.317 85.4248Z" fill="#7F5A4D"/>
      <path d="M194.377 137.564C194.044 139.593 192.922 140.932 190.859 140.873C188.822 140.815 187.516 139.485 187.566 137.431C187.616 135.393 188.955 134.096 191.009 134.138C193.071 134.179 194.144 135.551 194.377 137.564Z" fill="#7F5A4D"/>
      <path d="M190.884 82.0312C192.897 82.2724 194.269 83.3451 194.31 85.3991C194.352 87.4531 193.055 88.792 191.009 88.8336C188.955 88.8835 187.625 87.5779 187.566 85.5405C187.516 83.4782 188.855 82.3639 190.884 82.0312Z" fill="#7F5A4D"/>
      <path d="M145.38 127.586C147.484 127.91 148.798 129.025 148.748 131.07C148.698 133.099 147.376 134.38 145.347 134.33C143.326 134.288 142.045 132.966 142.079 130.929C142.112 128.875 143.501 127.852 145.38 127.586Z" fill="#7F5A4D"/>
      <path d="M197.487 95.4195C195.474 95.1784 194.111 94.0973 194.069 92.0433C194.036 89.9893 195.333 88.6588 197.37 88.6089C199.424 88.5673 200.755 89.8646 200.805 91.9103C200.855 93.9726 199.516 95.0952 197.487 95.4195Z" fill="#7F5A4D"/>
      <path d="M148.823 91.8773C148.59 93.9147 147.525 95.2702 145.488 95.3117C143.451 95.3533 142.128 94.0727 142.087 92.0519C142.037 90.0146 143.326 88.7007 145.347 88.6508C147.392 88.5926 148.49 89.9231 148.823 91.8773Z" fill="#7F5A4D"/>
      <path d="M200.896 131.07C200.572 133.066 199.474 134.305 197.429 134.404C195.574 134.496 193.786 132.583 194.036 130.762C194.319 128.766 195.566 127.502 197.603 127.61C199.616 127.71 200.68 129.074 200.896 131.07Z" fill="#7F5A4D"/>
      <path d="M204.04 95.3535C206.036 95.5614 207.125 96.6591 207.025 98.6549C206.925 100.676 205.661 101.682 203.691 101.565C201.836 101.457 200.822 100.301 200.847 98.4553C200.88 96.4263 202.069 95.4533 204.04 95.3535Z" fill="#7F5A4D"/>
      <path d="M204.031 127.652C201.952 127.461 200.813 126.429 200.838 124.45C200.871 122.471 202.019 121.365 203.99 121.39C205.969 121.415 207.058 122.571 207.05 124.542C207.042 126.546 205.819 127.477 204.031 127.652Z" fill="#7F5A4D"/>
      <path d="M138.785 127.585C136.823 127.361 135.75 126.271 135.858 124.292C135.975 122.288 137.222 121.307 139.176 121.44C141.014 121.564 142.004 122.704 141.97 124.542C141.929 126.554 140.74 127.494 138.785 127.585Z" fill="#7F5A4D"/>
      <path d="M184.431 75.8613C186.402 76.011 187.55 77.0422 187.5 79.0463C187.458 81.0587 186.269 82.1065 184.29 82.0483C182.444 81.9901 181.388 80.9007 181.363 79.0546C181.33 77.0422 182.46 76.011 184.431 75.8613Z" fill="#7F5A4D"/>
      <path d="M139.11 101.582C137.022 101.457 135.85 100.484 135.85 98.4798C135.858 96.484 136.989 95.403 138.977 95.4196C140.814 95.4363 141.887 96.484 141.962 98.3302C142.054 100.343 140.923 101.349 139.11 101.582Z" fill="#7F5A4D"/>
      <path d="M187.575 144.001C187.342 146.113 186.227 147.194 184.24 147.086C182.219 146.969 181.221 145.705 181.354 143.735C181.479 141.88 182.635 140.882 184.481 140.907C186.527 140.94 187.433 142.188 187.575 144.001Z" fill="#7F5A4D"/>
      <path d="M158.527 147.128C156.423 146.945 155.292 145.905 155.359 143.901C155.417 141.889 156.623 140.858 158.602 140.933C160.448 141.007 161.479 142.105 161.504 143.959C161.529 145.997 160.332 146.945 158.527 147.128Z" fill="#7F5A4D"/>
      <path d="M161.513 79.0959C161.288 81.0585 160.199 82.1312 158.22 82.0231C156.216 81.9067 155.234 80.6593 155.367 78.7051C155.492 76.8673 156.631 75.8777 158.469 75.911C160.482 75.9525 161.421 77.1417 161.513 79.0959Z" fill="#7F5A4D"/>
      <path d="M210.426 120.816C208.647 120.467 207.549 119.494 207.707 117.781C207.857 116.118 209.004 115.078 210.734 115.253C212.281 115.411 213.262 116.484 213.212 118.055C213.146 119.777 211.973 120.608 210.426 120.816Z" fill="#7F5A4D"/>
      <path d="M132.416 120.708C130.752 120.533 129.688 119.619 129.73 117.897C129.763 116.326 130.777 115.319 132.349 115.311C134.07 115.303 135.118 116.359 135.077 118.08C135.052 119.652 134.029 120.525 132.416 120.708Z" fill="#7F5A4D"/>
      <path d="M177.845 69.7153C179.358 69.8151 180.464 70.5968 180.614 72.1768C180.78 73.9148 179.774 75.0624 178.069 75.1539C176.348 75.2454 175.25 74.1809 175.225 72.4512C175.209 70.8796 176.223 69.9731 177.845 69.7153Z" fill="#7F5A4D"/>
      <path d="M213.254 104.891C213.087 106.546 212.214 107.702 210.501 107.735C208.796 107.768 207.715 106.671 207.69 104.966C207.674 103.394 208.705 102.338 210.243 102.238C211.965 102.114 212.929 103.186 213.254 104.891Z" fill="#7F5A4D"/>
      <path d="M132.333 102.264C133.829 102.355 134.919 103.12 135.068 104.7C135.226 106.422 134.245 107.561 132.549 107.652C130.836 107.744 129.755 106.696 129.73 104.975C129.713 103.403 130.703 102.505 132.333 102.264Z" fill="#7F5A4D"/>
      <path d="M167.708 150.446C167.534 152.092 166.652 153.223 164.947 153.232C163.251 153.24 162.187 152.159 162.195 150.454C162.195 148.891 163.218 147.86 164.756 147.776C166.461 147.685 167.417 148.741 167.708 150.446Z" fill="#7F5A4D"/>
      <path d="M167.675 72.4184C167.55 73.9485 166.735 75.0379 165.163 75.1626C163.434 75.2957 162.294 74.2728 162.228 72.5598C162.17 70.8384 163.251 69.7574 164.98 69.7657C166.56 69.774 167.442 70.8052 167.675 72.4184Z" fill="#7F5A4D"/>
      <path d="M177.936 153.289C176.265 153.073 175.159 152.15 175.201 150.454C175.242 148.766 176.356 147.718 178.053 147.784C179.6 147.842 180.622 148.874 180.656 150.429C180.697 152.125 179.625 153.048 177.936 153.289Z" fill="#7F5A4D"/>
      <path d="M203.915 139.992C202.31 139.859 201.412 138.994 201.487 137.348C201.553 135.842 202.451 135.019 203.948 135.036C205.603 135.053 206.468 136.009 206.401 137.647C206.343 139.152 205.42 139.892 203.915 139.992Z" fill="#7F5A4D"/>
      <path d="M197.204 76.4844C198.95 76.5675 199.898 77.3575 199.882 79.0124C199.865 80.5009 199.025 81.3741 197.537 81.4073C195.907 81.4489 195 80.5591 194.992 78.9209C194.992 77.4074 195.907 76.684 197.204 76.4844Z" fill="#7F5A4D"/>
      <path d="M197.47 141.515C198.976 141.648 199.874 142.413 199.899 143.926C199.924 145.573 199.025 146.488 197.379 146.471C195.882 146.454 195.009 145.598 194.976 144.093C194.942 142.429 195.874 141.606 197.47 141.515Z" fill="#7F5A4D"/>
      <path d="M203.724 82.9712C205.462 83.0543 206.418 83.8527 206.401 85.5158C206.385 87.0127 205.545 87.8941 204.04 87.9274C202.401 87.969 201.478 87.0709 201.478 85.4243C201.478 83.9025 202.393 83.1625 203.724 82.9712Z" fill="#7F5A4D"/>
      <path d="M147.858 79.0293C147.708 80.5012 146.943 81.391 145.438 81.3827C143.783 81.3744 142.919 80.4014 143.018 78.7799C143.11 77.2913 144.058 76.5013 145.546 76.5678C147.043 76.6261 147.767 77.5491 147.858 79.0293Z" fill="#7F5A4D"/>
      <path d="M139.002 135.045C140.482 135.211 141.355 136.001 141.33 137.515C141.297 139.195 140.299 140.034 138.669 139.918C137.164 139.81 136.391 138.837 136.474 137.34C136.573 135.818 137.513 135.111 139.002 135.045Z" fill="#7F5A4D"/>
      <path d="M193.254 72.385C193.129 73.7322 192.422 74.6636 191.084 74.7301C189.587 74.805 188.647 73.8985 188.664 72.4017C188.68 71.0545 189.57 70.2063 190.917 70.198C192.289 70.1814 193.021 71.0711 193.254 72.385Z" fill="#7F5A4D"/>
      <path d="M154.22 72.4761C154.02 73.79 153.313 74.7048 151.974 74.7131C150.503 74.7214 149.58 73.7817 149.671 72.3098C149.746 71.0042 150.652 70.156 151.999 70.2142C153.338 70.2641 154.037 71.1622 154.22 72.4761Z" fill="#7F5A4D"/>
      <path d="M145.405 141.547C146.894 141.655 147.817 142.404 147.833 143.926C147.858 145.589 146.927 146.487 145.272 146.429C143.759 146.371 142.952 145.447 142.985 143.942C143.019 142.421 143.917 141.664 145.405 141.547Z" fill="#7F5A4D"/>
      <path d="M210.426 133.348C208.996 133.14 208.064 132.367 208.139 130.853C208.206 129.514 209.079 128.666 210.434 128.683C211.931 128.708 212.813 129.623 212.746 131.119C212.688 132.483 211.79 133.19 210.426 133.348Z" fill="#7F5A4D"/>
      <path d="M132.233 128.683C133.671 128.841 134.594 129.54 134.653 130.87C134.711 132.342 133.796 133.282 132.324 133.248C131.002 133.224 130.162 132.325 130.154 130.987C130.145 129.623 131.085 128.966 132.233 128.683Z" fill="#7F5A4D"/>
      <path d="M139.002 87.9356C137.372 87.7609 136.482 86.9876 136.499 85.4824C136.515 83.8276 137.497 82.971 139.118 83.0708C140.607 83.1706 141.38 84.1186 141.322 85.6071C141.255 87.1372 140.274 87.7942 139.002 87.9356Z" fill="#7F5A4D"/>
      <path d="M210.301 94.3141C208.913 94.023 208.006 93.2081 208.172 91.7196C208.314 90.4223 209.22 89.5824 210.559 89.6905C212.023 89.7986 212.879 90.7549 212.721 92.2351C212.588 93.5407 211.665 94.2309 210.301 94.3141Z" fill="#7F5A4D"/>
      <path d="M154.236 150.595C153.995 151.909 153.263 152.79 151.9 152.774C150.553 152.757 149.663 151.901 149.654 150.553C149.646 149.057 150.586 148.15 152.083 148.233C153.413 148.316 154.12 149.256 154.236 150.595Z" fill="#7F5A4D"/>
      <path d="M190.784 148.142C192.347 148.367 193.287 149.123 193.221 150.62C193.162 151.942 192.298 152.799 190.967 152.791C189.495 152.782 188.605 151.868 188.647 150.387C188.68 149.04 189.645 148.4 190.784 148.142Z" fill="#7F5A4D"/>
      <path d="M134.686 92.0438C134.436 93.3743 133.688 94.2641 132.324 94.2059C130.985 94.1477 130.12 93.2579 130.17 91.9024C130.22 90.5636 131.118 89.6987 132.474 89.7486C133.838 89.7985 134.536 90.7133 134.686 92.0438Z" fill="#7F5A4D"/>
      <path d="M219 111.436C218.867 112.758 218.185 113.515 216.929 113.506C215.674 113.49 214.925 112.725 214.933 111.469C214.95 110.213 215.715 109.465 216.971 109.473C218.235 109.482 218.875 110.28 219 111.436Z" fill="#7F5A4D"/>
      <path d="M186.219 156.782C186.178 157.971 185.654 158.662 184.647 158.753C183.5 158.861 182.735 158.254 182.693 157.073C182.652 155.901 183.35 155.244 184.523 155.261C185.571 155.277 186.036 155.984 186.219 156.782Z" fill="#7F5A4D"/>
      <path d="M169.429 157.048C169.612 155.642 170.352 154.961 171.6 155.06C172.872 155.168 173.504 156.025 173.371 157.264C173.254 158.362 172.514 159.002 171.392 158.977C170.103 158.936 169.537 158.121 169.429 157.048Z" fill="#7F5A4D"/>
      <path d="M160.182 156.998C160.058 158.104 159.467 158.795 158.311 158.745C157.313 158.695 156.69 158.054 156.69 157.048C156.69 155.901 157.38 155.235 158.528 155.285C159.534 155.319 160.058 155.984 160.182 156.998Z" fill="#7F5A4D"/>
      <path d="M160.166 65.9732C160.033 66.9711 159.492 67.653 158.477 67.6614C157.313 67.6697 156.631 66.9462 156.723 65.7903C156.798 64.8007 157.488 64.1853 158.511 64.2435C159.525 64.3101 160.049 64.9753 160.166 65.9732Z" fill="#7F5A4D"/>
      <path d="M173.38 65.9653C173.213 67.3707 172.432 68.0027 171.176 67.8779C170.037 67.7615 169.43 66.9964 169.505 65.8572C169.588 64.535 170.419 63.9279 171.683 64.0443C172.831 64.1524 173.346 64.9424 173.38 65.9653Z" fill="#7F5A4D"/>
      <path d="M186.219 65.8984C186.011 67.1457 185.363 67.811 184.223 67.6863C183.25 67.5782 182.635 66.9129 182.702 65.8984C182.776 64.7508 183.508 64.1271 184.639 64.2352C185.645 64.3267 186.094 65.0668 186.219 65.8984Z" fill="#7F5A4D"/>
      <path d="M127.651 98.48C127.526 99.4779 126.994 100.168 125.979 100.185C124.815 100.21 124.125 99.4945 124.2 98.3386C124.266 97.349 124.94 96.7254 125.971 96.7752C126.994 96.8168 127.518 97.4821 127.651 98.48Z" fill="#7F5A4D"/>
      <path d="M218.75 98.2974C218.667 99.5781 218.094 100.252 216.921 100.252C215.906 100.252 215.266 99.6779 215.183 98.68C215.091 97.549 215.657 96.8006 216.821 96.7174C218.01 96.626 218.576 97.3328 218.75 98.2974Z" fill="#7F5A4D"/>
      <path d="M127.825 111.495C127.742 112.717 127.085 113.432 125.796 113.382C124.657 113.341 124.008 112.659 124 111.528C123.992 110.239 124.724 109.549 126.004 109.59C127.152 109.623 127.734 110.322 127.825 111.495Z" fill="#7F5A4D"/>
      <path d="M127.651 124.534C127.493 125.532 126.952 126.205 125.937 126.197C124.773 126.189 124.1 125.457 124.208 124.301C124.308 123.32 124.998 122.704 126.029 122.779C127.027 122.862 127.559 123.528 127.651 124.534Z" fill="#7F5A4D"/>
      <path d="M218.742 124.45C218.667 125.581 218.093 126.255 216.929 126.263C215.915 126.263 215.274 125.69 215.191 124.692C215.1 123.561 215.665 122.804 216.829 122.729C217.985 122.654 218.609 123.295 218.742 124.45Z" fill="#7F5A4D"/>
    </g>
    <path opacity="0.5" d="M78.616 -49.6643C62.6275 -64.3668 52.9243 -85.3072 49.3982 -110.517C47.906 -121.159 47.3391 -132.142 43.1961 -142.007C39.0531 -151.881 30.2169 -160.629 19.7718 -160.588C6.95098 -160.529 -2.46042 -147.645 -5.88654 -134.927C-13.0889 -108.182 -12.1636 -77.0762 7.7179 -55.8438C23.1979 -39.3067 46.5639 -31.2424 60.285 -13.2291C73.5727 4.20876 75.9901 28.7352 91.4368 44.2966C99.5728 52.4944 110.568 57.2979 121.722 60.3085C137.519 64.5616 154.682 65.4622 169.996 59.7247C185.317 53.9871 198.372 40.7774 201.056 24.6322C208.092 -17.6907 153.999 -23.2782 125.556 -27.9066C106.317 -31.0422 90.6783 -38.5811 78.616 -49.6643Z" fill="#FCB55D"/>
    <path opacity="0.25" d="M436.602 172.821C416.72 178.574 396.132 165.47 382.496 149.864C368.86 134.257 358.567 115.329 341.885 103.045C306.449 76.9782 250.284 93.5032 228.921 132.01C207.557 170.531 219.064 222.17 250.171 253.311C281.264 284.453 328.08 296.44 371.793 291.818C410.205 287.761 447.869 271.292 474.139 242.921C500.41 214.55 514.144 173.881 506.657 135.897C502.271 113.647 478.61 84.654 467.597 113.195C459.065 135.374 467.54 163.873 436.602 172.821Z" fill="#4A148C"/>
    <path opacity="0.4" d="M301.764 56.4748C310.731 56.4748 318.001 49.205 318.001 40.2374C318.001 31.2694 310.731 24 301.764 24C292.796 24 285.527 31.2694 285.527 40.2374C285.527 49.205 292.796 56.4748 301.764 56.4748Z" fill="white"/>
    <path opacity="0.859468" d="M281.557 56.4748C290.525 56.4748 297.795 49.205 297.795 40.2374C297.795 31.2694 290.525 24 281.557 24C272.59 24 265.32 31.2694 265.32 40.2374C265.32 49.205 272.59 56.4748 281.557 56.4748Z" fill="white"/>
  </g>
</svg>