<svg width="29" height="28" viewBox="0 0 29 28" fill="none" xmlns="http://www.w3.org/2000/svg">
<path d="M22.5968 6.32302L16.5651 2.83469C15.4101 2.16969 13.6018 2.16969 12.4468 2.83469L6.35676 6.34635C3.94176 7.97969 3.80176 8.22469 3.80176 10.8264V17.1614C3.80176 19.763 3.94176 20.0197 6.40342 21.6764L12.4351 25.1647C13.0184 25.503 13.7651 25.6664 14.5001 25.6664C15.2351 25.6664 15.9818 25.503 16.5534 25.1647L22.6434 21.653C25.0584 20.0197 25.1984 19.7747 25.1984 17.173V10.8264C25.1984 8.22469 25.0584 7.97969 22.5968 6.32302ZM14.5001 17.7914C12.4118 17.7914 10.7084 16.088 10.7084 13.9997C10.7084 11.9114 12.4118 10.208 14.5001 10.208C16.5884 10.208 18.2918 11.9114 18.2918 13.9997C18.2918 16.088 16.5884 17.7914 14.5001 17.7914Z" fill="#02003D"/>
</svg>
