<svg width="29" height="28" viewBox="0 0 29 28" fill="none" xmlns="http://www.w3.org/2000/svg">
<path d="M18.2567 7.6416H7.24337C6.91671 7.6416 6.61337 7.65327 6.33337 7.66493C3.56837 7.82827 2.83337 8.84327 2.83337 11.9933V12.6699C2.83337 13.3116 3.35837 13.8366 4.00004 13.8366H21.5C22.1417 13.8366 22.6667 13.3116 22.6667 12.6699V11.9933C22.6667 8.5166 21.78 7.6416 18.2567 7.6416Z" fill="#02003D"/>
<path d="M3.99992 15.5864C3.35825 15.5864 2.83325 16.1114 2.83325 16.7531V20.1481C2.83325 23.6248 3.71992 24.4998 7.24325 24.4998H18.2566C21.7216 24.4998 22.6316 23.6598 22.6666 20.3348V16.7531C22.6666 16.1114 22.1416 15.5864 21.4999 15.5864H3.99992ZM8.61992 21.6531H6.62492C6.14659 21.6531 5.74992 21.2564 5.74992 20.7781C5.74992 20.2998 6.14659 19.9031 6.62492 19.9031H8.63159C9.10992 19.9031 9.50659 20.2998 9.50659 20.7781C9.50659 21.2564 9.10992 21.6531 8.61992 21.6531ZM15.1416 21.6531H11.1283C10.6499 21.6531 10.2533 21.2564 10.2533 20.7781C10.2533 20.2998 10.6499 19.9031 11.1283 19.9031H15.1416C15.6199 19.9031 16.0166 20.2998 16.0166 20.7781C16.0166 21.2564 15.6316 21.6531 15.1416 21.6531Z" fill="#02003D"/>
<path d="M26.1666 15.5519V9.43853C26.1666 5.78686 24.0783 4.2002 20.9283 4.2002H10.51C9.6233 4.2002 8.82996 4.32853 8.12996 4.59686C7.58163 4.7952 7.09163 5.08686 6.69496 5.47186C6.48496 5.6702 6.6483 5.99686 6.95163 5.99686H19.6333C22.2583 5.99686 24.3816 8.1202 24.3816 10.7452V19.1102C24.3816 19.4019 24.6966 19.5652 24.9066 19.3552C25.7116 18.5035 26.1666 17.2552 26.1666 15.5519Z" fill="#02003D"/>
</svg>
