<svg width="25" height="25" viewBox="0 0 25 25" fill="none" xmlns="http://www.w3.org/2000/svg">
<path d="M20.8625 9.89502H11.8625C10.758 9.89502 9.86255 10.7904 9.86255 11.895V20.895C9.86255 21.9996 10.758 22.895 11.8625 22.895H20.8625C21.9671 22.895 22.8625 21.9996 22.8625 20.895V11.895C22.8625 10.7904 21.9671 9.89502 20.8625 9.89502Z" stroke="#02003D" stroke-width="1.5" stroke-linecap="round" stroke-linejoin="round"/>
<path d="M5.86255 15.895H4.86255C4.33212 15.895 3.82341 15.6843 3.44834 15.3092C3.07326 14.9342 2.86255 14.4255 2.86255 13.895V4.89502C2.86255 4.36459 3.07326 3.85588 3.44834 3.48081C3.82341 3.10573 4.33212 2.89502 4.86255 2.89502H13.8625C14.393 2.89502 14.9017 3.10573 15.2768 3.48081C15.6518 3.85588 15.8625 4.36459 15.8625 4.89502V5.89502" stroke="#02003D" stroke-width="1.5" stroke-linecap="round" stroke-linejoin="round"/>
</svg>
