<svg width="18" height="21" viewBox="0 0 18 21" fill="none" xmlns="http://www.w3.org/2000/svg">
<path d="M14.8162 2.47051C14.7362 2.47051 14.6562 2.4505 14.5861 2.41049C12.6658 1.42029 11.0054 1.0002 9.015 1.0002C7.0346 1.0002 5.15421 1.4703 3.44386 2.41049C3.20381 2.54052 2.90375 2.4505 2.76372 2.21045C2.6337 1.9704 2.72372 1.66034 2.96377 1.53031C4.82415 0.520106 6.86456 0 9.015 0C11.1454 0 13.0058 0.470096 15.0462 1.52031C15.2963 1.65034 15.3863 1.9504 15.2563 2.19045C15.1663 2.37049 14.9962 2.47051 14.8162 2.47051ZM0.503262 7.72158C0.403241 7.72158 0.303221 7.69158 0.213202 7.63156C-0.0168446 7.47153 -0.0668549 7.16147 0.0931778 6.93142C1.08338 5.53113 2.34364 4.43091 3.84395 3.66075C6.98459 2.04042 11.0054 2.03042 14.1561 3.65075C15.6564 4.42091 16.9166 5.51113 17.9068 6.90141C18.0669 7.12146 18.0168 7.44152 17.7868 7.60156C17.5568 7.76159 17.2467 7.71158 17.0867 7.48153C16.1865 6.22127 15.0462 5.23107 13.696 4.54093C10.8254 3.07063 7.15462 3.07063 4.29404 4.55093C2.93376 5.25108 1.79353 6.25128 0.893342 7.51154C0.813325 7.65157 0.663295 7.72158 0.503262 7.72158ZM6.75454 19.7941C6.62451 19.7941 6.49449 19.744 6.40447 19.644C5.53429 18.7738 5.0642 18.2137 4.39406 17.0035C3.70392 15.7732 3.34384 14.2729 3.34384 12.6626C3.34384 9.69198 5.88436 7.27149 9.005 7.27149C12.1256 7.27149 14.6662 9.69198 14.6662 12.6626C14.6662 12.9426 14.4461 13.1627 14.1661 13.1627C13.886 13.1627 13.666 12.9426 13.666 12.6626C13.666 10.2421 11.5755 8.27169 9.005 8.27169C6.43448 8.27169 4.34405 10.2421 4.34405 12.6626C4.34405 14.1029 4.66411 15.4332 5.27424 16.5134C5.91437 17.6636 6.35446 18.1537 7.12462 18.9339C7.31466 19.1339 7.31466 19.444 7.12462 19.644C7.01459 19.744 6.88457 19.7941 6.75454 19.7941ZM13.926 17.9437C12.7358 17.9437 11.6855 17.6436 10.8254 17.0535C9.33507 16.0433 8.44489 14.4029 8.44489 12.6626C8.44489 12.3825 8.66493 12.1625 8.94499 12.1625C9.22505 12.1625 9.44509 12.3825 9.44509 12.6626C9.44509 14.0729 10.1652 15.4032 11.3855 16.2233C12.0956 16.7034 12.9258 16.9335 13.926 16.9335C14.1661 16.9335 14.5661 16.9035 14.9662 16.8334C15.2363 16.7834 15.4963 16.9635 15.5463 17.2435C15.5964 17.5136 15.4163 17.7736 15.1363 17.8236C14.5661 17.9337 14.066 17.9437 13.926 17.9437ZM11.9156 20.0041C11.8756 20.0041 11.8256 19.9941 11.7856 19.9841C10.1952 19.544 9.15503 18.9539 8.06481 17.8837C6.66452 16.4934 5.89437 14.643 5.89437 12.6626C5.89437 11.0423 7.27465 9.72199 8.975 9.72199C10.6753 9.72199 12.0556 11.0423 12.0556 12.6626C12.0556 13.7328 12.9858 14.603 14.1361 14.603C15.2863 14.603 16.2165 13.7328 16.2165 12.6626C16.2165 8.89182 12.9658 5.83119 8.96499 5.83119C6.12441 5.83119 3.52388 7.41152 2.35364 9.86202C1.96356 10.6722 1.76352 11.6224 1.76352 12.6626C1.76352 13.4428 1.83353 14.673 2.43366 16.2733C2.53368 16.5334 2.40365 16.8234 2.1436 16.9135C1.88354 17.0135 1.59348 16.8735 1.50347 16.6234C1.01337 15.3131 0.773317 14.0129 0.773317 12.6626C0.773317 11.4623 1.00336 10.3721 1.45346 9.42193C2.78373 6.63136 5.73433 4.82099 8.96499 4.82099C13.5159 4.82099 17.2167 8.33171 17.2167 12.6526C17.2167 14.2729 15.8364 15.5932 14.1361 15.5932C12.4357 15.5932 11.0554 14.2729 11.0554 12.6526C11.0554 11.5824 10.1252 10.7122 8.975 10.7122C7.82476 10.7122 6.89457 11.5824 6.89457 12.6526C6.89457 14.3629 7.5547 15.9633 8.76495 17.1635C9.71515 18.1037 10.6253 18.6238 12.0356 19.0139C12.3057 19.0839 12.4557 19.364 12.3857 19.624C12.3357 19.8541 12.1256 20.0041 11.9156 20.0041Z" fill="#AAA8BD"/>
</svg>
