<svg width="45" height="51" viewBox="0 0 45 51" fill="none" xmlns="http://www.w3.org/2000/svg">
<path d="M37.0148 7.04711C36.817 7.04711 36.6193 6.99768 36.4463 6.89882C31.7013 4.45219 27.5989 3.41422 22.6809 3.41422C17.7876 3.41422 13.1415 4.57576 8.9155 6.89882C8.32238 7.2201 7.58097 6.99768 7.23498 6.40456C6.91371 5.81143 7.13613 5.04531 7.72925 4.72404C12.326 2.22797 17.3675 0.942871 22.6809 0.942871C27.9449 0.942871 32.5416 2.10441 37.5832 4.69932C38.201 5.0206 38.4234 5.762 38.1021 6.35513C37.8797 6.79997 37.4596 7.04711 37.0148 7.04711ZM1.64973 20.0217C1.4026 20.0217 1.15546 19.9476 0.93304 19.7993C0.36463 19.4039 0.241062 18.6377 0.636478 18.0693C3.08311 14.6094 6.19702 11.891 9.90404 9.98801C17.6641 5.98443 27.5989 5.95971 35.3837 9.9633C39.0907 11.8662 42.2046 14.56 44.6512 17.9952C45.0466 18.5389 44.9231 19.3297 44.3547 19.7251C43.7863 20.1206 43.0201 19.997 42.6247 19.4286C40.4005 16.3147 37.5832 13.868 34.2468 12.1628C27.1541 8.52992 18.0842 8.52992 11.0161 12.1875C7.65511 13.9175 4.83777 16.3888 2.61356 19.5027C2.41585 19.8487 2.04515 20.0217 1.64973 20.0217ZM17.0957 49.8509C16.7744 49.8509 16.4531 49.7273 16.2307 49.4802C14.0806 47.3301 12.9191 45.9462 11.2633 42.9558C9.55805 39.9161 8.66837 36.209 8.66837 32.2302C8.66837 24.8903 14.9456 18.9096 22.6562 18.9096C30.3668 18.9096 36.6441 24.8903 36.6441 32.2302C36.6441 32.9221 36.1004 33.4658 35.4084 33.4658C34.7164 33.4658 34.1727 32.9221 34.1727 32.2302C34.1727 26.2495 29.0076 21.3809 22.6562 21.3809C16.3048 21.3809 11.1397 26.2495 11.1397 32.2302C11.1397 35.7889 11.9306 39.0758 13.4381 41.7449C15.0197 44.5869 16.1071 45.7979 18.0101 47.7255C18.4796 48.2198 18.4796 48.9859 18.0101 49.4802C17.7382 49.7273 17.4169 49.8509 17.0957 49.8509ZM34.8153 45.2789C31.8743 45.2789 29.2794 44.5375 27.1541 43.0794C23.4718 40.5833 21.2723 36.5303 21.2723 32.2302C21.2723 31.5382 21.8159 30.9945 22.5079 30.9945C23.1999 30.9945 23.7436 31.5382 23.7436 32.2302C23.7436 35.7148 25.523 39.0017 28.538 41.0282C30.2927 42.2144 32.3439 42.7828 34.8153 42.7828C35.4084 42.7828 36.3969 42.7087 37.3855 42.5357C38.0527 42.4121 38.6953 42.857 38.8188 43.5489C38.9424 44.2162 38.4976 44.8588 37.8056 44.9823C36.3969 45.2542 35.1612 45.2789 34.8153 45.2789ZM29.8478 50.3699C29.749 50.3699 29.6254 50.3452 29.5266 50.3204C25.5971 49.2331 23.0269 47.775 20.3331 45.1306C16.8732 41.6954 14.9703 37.1234 14.9703 32.2302C14.9703 28.2266 18.3808 24.9644 22.5821 24.9644C26.7834 24.9644 30.1938 28.2266 30.1938 32.2302C30.1938 34.8745 32.4922 37.0246 35.3342 37.0246C38.1763 37.0246 40.4746 34.8745 40.4746 32.2302C40.4746 22.9132 32.4428 15.3508 22.5574 15.3508C15.5387 15.3508 9.11321 19.2556 6.22173 25.3104C5.2579 27.3122 4.76363 29.66 4.76363 32.2302C4.76363 34.1578 4.93663 37.1976 6.41944 41.1517C6.66657 41.7943 6.3453 42.511 5.70275 42.7334C5.06019 42.9805 4.3435 42.6346 4.12108 42.0167C2.91012 38.7792 2.317 35.5665 2.317 32.2302C2.317 29.2645 2.88541 26.5708 3.99751 24.223C7.28441 17.3279 14.5749 12.8548 22.5574 12.8548C33.802 12.8548 42.946 21.5292 42.946 32.2055C42.946 36.209 39.5355 39.4712 35.3342 39.4712C31.1329 39.4712 27.7225 36.209 27.7225 32.2055C27.7225 29.5611 25.4241 27.411 22.5821 27.411C19.74 27.411 17.4417 29.5611 17.4417 32.2055C17.4417 36.4315 19.0728 40.3856 22.0631 43.3512C24.4109 45.6743 26.6598 46.9594 30.1444 47.9232C30.8117 48.0962 31.1824 48.7882 31.0094 49.4308C30.8858 49.9992 30.3668 50.3699 29.8478 50.3699Z" fill="#5F00F8"/>
</svg>
