<svg width="128" height="136" viewBox="0 0 128 136" fill="none" xmlns="http://www.w3.org/2000/svg">
<g filter="url(#filter0_d_320_22962)">
<rect x="32" y="32" width="64" height="72" rx="32" fill="#02003D"/>
<path d="M74.3399 54.0695C74.1976 54.0695 74.0554 54.0325 73.9309 53.9585C70.5169 52.127 67.5652 51.35 64.0267 51.35C60.506 51.35 57.163 52.2195 54.1224 53.9585C53.6957 54.199 53.1622 54.0325 52.9133 53.5885C52.6821 53.1445 52.8422 52.571 53.2689 52.3305C56.5763 50.462 60.2037 49.5 64.0267 49.5C67.8141 49.5 71.1215 50.3695 74.7489 52.312C75.1934 52.5525 75.3534 53.1075 75.1223 53.5515C74.9622 53.8845 74.66 54.0695 74.3399 54.0695ZM48.8947 63.782C48.7169 63.782 48.5391 63.7265 48.379 63.6155C47.9701 63.3195 47.8811 62.746 48.1656 62.3205C49.926 59.7305 52.1665 57.6955 54.8337 56.271C60.417 53.274 67.5652 53.2555 73.1663 56.2525C75.8335 57.677 78.074 59.6935 79.8344 62.265C80.1189 62.672 80.0299 63.264 79.621 63.56C79.212 63.856 78.6608 63.7635 78.3763 63.338C76.7759 61.007 74.7489 59.1755 72.3484 57.899C67.2451 55.1795 60.7193 55.1795 55.6338 57.9175C53.2156 59.2125 51.1885 61.0625 49.5882 63.3935C49.4459 63.6525 49.1792 63.782 48.8947 63.782ZM60.0081 86.1115C59.7769 86.1115 59.5458 86.019 59.3857 85.834C57.8387 84.2245 57.003 83.1885 55.8117 80.95C54.5847 78.6745 53.9446 75.8995 53.9446 72.921C53.9446 67.4265 58.4611 62.9495 64.0089 62.9495C69.5567 62.9495 74.0732 67.4265 74.0732 72.921C74.0732 73.439 73.682 73.846 73.1841 73.846C72.6862 73.846 72.295 73.439 72.295 72.921C72.295 68.444 68.5787 64.7995 64.0089 64.7995C59.4391 64.7995 55.7228 68.444 55.7228 72.921C55.7228 75.585 56.2918 78.0455 57.3764 80.0435C58.5144 82.171 59.2968 83.0775 60.666 84.5205C61.0038 84.8905 61.0038 85.464 60.666 85.834C60.4704 86.019 60.2392 86.1115 60.0081 86.1115ZM72.7573 82.689C70.6414 82.689 68.7743 82.134 67.2451 81.0425C64.5957 79.174 63.0131 76.14 63.0131 72.921C63.0131 72.403 63.4043 71.996 63.9022 71.996C64.4001 71.996 64.7913 72.403 64.7913 72.921C64.7913 75.5295 66.0715 77.99 68.2409 79.507C69.5033 80.395 70.9792 80.8205 72.7573 80.8205C73.1841 80.8205 73.8954 80.765 74.6066 80.6355C75.0867 80.543 75.549 80.876 75.6379 81.394C75.7268 81.8935 75.4068 82.3745 74.9089 82.467C73.8954 82.6705 73.0063 82.689 72.7573 82.689ZM69.1833 86.5C69.1122 86.5 69.0233 86.4815 68.9521 86.463C66.1249 85.649 64.2756 84.5575 62.3374 82.578C59.848 80.0065 58.4789 76.584 58.4789 72.921C58.4789 69.924 60.9327 67.482 63.9555 67.482C66.9784 67.482 69.4322 69.924 69.4322 72.921C69.4322 74.9005 71.0859 76.51 73.1308 76.51C75.1756 76.51 76.8293 74.9005 76.8293 72.921C76.8293 65.9465 71.0503 60.2855 63.9378 60.2855C58.8878 60.2855 54.2647 63.2085 52.1842 67.741C51.4908 69.2395 51.1351 70.997 51.1351 72.921C51.1351 74.364 51.2596 76.6395 52.3265 79.5995C52.5043 80.0805 52.2732 80.617 51.8108 80.7835C51.3485 80.9685 50.8329 80.7095 50.6728 80.247C49.8015 77.8235 49.3748 75.4185 49.3748 72.921C49.3748 70.701 49.7838 68.6845 50.5839 66.927C52.9489 61.7655 58.1944 58.417 63.9378 58.417C72.0283 58.417 78.6074 64.9105 78.6074 72.9025C78.6074 75.8995 76.1536 78.3415 73.1308 78.3415C70.1079 78.3415 67.6541 75.8995 67.6541 72.9025C67.6541 70.923 66.0004 69.3135 63.9555 69.3135C61.9107 69.3135 60.257 70.923 60.257 72.9025C60.257 76.066 61.4306 79.026 63.5821 81.246C65.2714 82.985 66.8895 83.947 69.3967 84.6685C69.8768 84.798 70.1435 85.316 70.019 85.797C69.9301 86.2225 69.5567 86.5 69.1833 86.5Z" fill="white"/>
</g>
<defs>
<filter id="filter0_d_320_22962" x="0" y="0" width="128" height="136" filterUnits="userSpaceOnUse" color-interpolation-filters="sRGB">
<feFlood flood-opacity="0" result="BackgroundImageFix"/>
<feColorMatrix in="SourceAlpha" type="matrix" values="0 0 0 0 0 0 0 0 0 0 0 0 0 0 0 0 0 0 127 0" result="hardAlpha"/>
<feOffset/>
<feGaussianBlur stdDeviation="16"/>
<feComposite in2="hardAlpha" operator="out"/>
<feColorMatrix type="matrix" values="0 0 0 0 0.00784314 0 0 0 0 0 0 0 0 0 0.239216 0 0 0 0.16 0"/>
<feBlend mode="normal" in2="BackgroundImageFix" result="effect1_dropShadow_320_22962"/>
<feBlend mode="normal" in="SourceGraphic" in2="effect1_dropShadow_320_22962" result="shape"/>
</filter>
</defs>
</svg>
