<svg width="54" height="34" viewBox="0 0 54 34" fill="none" xmlns="http://www.w3.org/2000/svg">
<path d="M18.9116 3.63525H34.9284V30.3625H18.9116V3.63525Z" fill="#FF5F00"/>
<path d="M20.5614 17.0012C20.5594 14.4276 21.1305 11.8872 22.2313 9.57238C23.3321 7.25755 24.9339 5.22887 26.9154 3.63989C24.4612 1.66932 21.5139 0.443942 18.4103 0.103799C15.3067 -0.236344 12.172 0.322472 9.36458 1.71638C6.55713 3.11029 4.19015 5.28305 2.53416 7.98634C0.878176 10.6896 0 13.8144 0 17.0035C0 20.1926 0.878176 23.3173 2.53416 26.0206C4.19015 28.7239 6.55713 30.8967 9.36458 32.2906C12.172 33.6845 15.3067 34.2433 18.4103 33.9032C21.5139 33.563 24.4612 32.3376 26.9154 30.3671C24.9333 28.7776 23.3312 26.7482 22.2303 24.4324C21.1294 22.1167 20.5587 19.5755 20.5614 17.0012Z" fill="#EB001B"/>
<path d="M52.2436 27.534V26.9864H52.4747V26.873H51.9248V26.9864H52.142V27.5341L52.2436 27.534ZM53.3111 27.534V26.8731H53.1447L52.9507 27.3452L52.7565 26.873H52.5902V27.534H52.7104V27.0336L52.8906 27.4633H53.0153L53.1956 27.0336V27.534H53.3111Z" fill="#F79E1B"/>
<path d="M53.8332 17.0011C53.8332 20.1904 52.9548 23.3154 51.2985 26.0187C49.6422 28.7221 47.2749 30.8949 44.467 32.2886C41.6592 33.6823 38.5242 34.2407 35.4205 33.9001C32.3167 33.5594 29.3693 32.3334 26.9153 30.3622C28.896 28.7718 30.4973 26.7426 31.5985 24.4277C32.6996 22.1127 33.2717 19.5725 33.2717 16.9987C33.2717 14.4248 32.6996 11.8846 31.5985 9.56964C30.4973 7.25468 28.896 5.22546 26.9153 3.63506C29.3693 1.66386 32.3167 0.43787 35.4205 0.0972313C38.5243 -0.243408 41.6593 0.31505 44.4671 1.70877C47.2749 3.10249 49.6423 5.27522 51.2985 7.97862C52.9548 10.682 53.8332 13.807 53.8332 16.9963V17.0011Z" fill="#F79E1B"/>
</svg>
     