<svg width="154" height="34" viewBox="0 0 154 34" fill="none" xmlns="http://www.w3.org/2000/svg">
  <defs>
    <linearGradient id="paint0_linear_320_10890" x1="24.76" y1="7.66912" x2="12.3708" y2="22.0019" gradientUnits="userSpaceOnUse">
      <stop stop-color="#4333F5"/>
      <stop offset="1" stop-color="#1E015C"/>
    </linearGradient>
    <linearGradient id="paint1_linear_320_10890" x1="13.7072" y1="1.46028" x2="13.7072" y2="24.4" gradientUnits="userSpaceOnUse">
      <stop stop-color="#4200FC"/>
      <stop offset="1" stop-color="#5E00F8"/>
    </linearGradient>
    <linearGradient id="paint2_linear_320_10890" x1="5.49406" y1="-0.0474851" x2="5.49406" y2="24.6923" gradientUnits="userSpaceOnUse">
      <stop stop-color="#7F53FC"/>
      <stop offset="1" stop-color="#4F00F8"/>
    </linearGradient>
  </defs>
  <path d="M26.9999 13.5C26.9999 17.0803 25.5775 20.5141 23.0458 23.0458C20.5141 25.5775 17.0804 26.9998 13.5 26.9999C13.3153 26.9999 13.1342 26.9965 12.9495 26.9895C11.9633 26.9492 10.9845 26.802 10.03 26.5505C10.2147 26.4565 10.3958 26.3624 10.577 26.2614C10.5805 26.2614 10.584 26.2579 10.5909 26.2544L10.5944 26.2509C10.786 26.1464 10.9742 26.0419 11.1588 25.9339C11.2041 25.906 11.2494 25.8816 11.2947 25.8572C11.4689 25.7527 11.6431 25.6482 11.8138 25.5367C11.8642 25.5094 11.9131 25.4791 11.9601 25.4461C12.0925 25.366 12.2249 25.2789 12.3538 25.1918C12.4443 25.1326 12.5384 25.0699 12.6255 25.0107C12.7579 24.9201 12.8868 24.8295 13.0157 24.7354C13.1028 24.6762 13.1829 24.617 13.2665 24.5508C13.378 24.4741 13.486 24.3905 13.594 24.3069C13.6916 24.2372 13.7856 24.1641 13.8797 24.0874C14.0121 23.9864 14.141 23.8819 14.2699 23.7704C14.3256 23.7286 14.3814 23.6833 14.4371 23.6345C14.5765 23.5196 14.7123 23.4011 14.8482 23.2792C14.9214 23.2165 14.9945 23.1538 15.0677 23.0841C15.1478 23.0144 15.2245 22.9447 15.3011 22.8716C15.4474 22.7392 15.5903 22.5998 15.7331 22.4605C15.7522 22.4448 15.7698 22.4273 15.7854 22.4082C15.9247 22.2758 16.0606 22.1365 16.193 21.9971C16.2871 21.9065 16.3741 21.8125 16.4578 21.7184C16.5588 21.6174 16.6529 21.5129 16.7469 21.4083C16.8027 21.3491 16.8549 21.2899 16.9037 21.2307C17.0291 21.0913 17.1511 20.9485 17.273 20.8056C17.3357 20.7325 17.3984 20.6558 17.4576 20.5792C17.5482 20.4747 17.6353 20.3701 17.7154 20.2621C17.799 20.1611 17.8792 20.0566 17.9558 19.9521C18.029 19.8615 18.0987 19.7674 18.1649 19.6769C18.2554 19.5584 18.3425 19.44 18.4261 19.318C18.5098 19.1961 18.6003 19.0741 18.684 18.9487C18.7254 18.894 18.7638 18.837 18.7989 18.778C18.9174 18.6038 19.0323 18.4261 19.1438 18.2485C19.2867 18.029 19.4225 17.806 19.5514 17.5796C19.6107 17.482 19.6664 17.3845 19.7221 17.2869C20.1739 16.4901 20.5765 15.6664 20.9276 14.8203C20.9798 14.7019 21.0286 14.5834 21.0739 14.4615C21.1296 14.3326 21.1784 14.2002 21.2272 14.0678C21.269 13.9598 21.3108 13.8483 21.3491 13.7369C21.3944 13.6149 21.4362 13.4895 21.478 13.3676C21.6313 12.9216 21.7707 12.4722 21.8926 12.0158C21.9239 11.9009 21.9553 11.7894 21.9832 11.6744C22.0041 11.6013 22.0215 11.5316 22.0389 11.4584L22.1225 11.1031C22.234 10.6188 22.3281 10.1311 22.4082 9.63636L22.4605 9.3019C22.4674 9.24965 22.4744 9.20087 22.4814 9.14861C22.5023 9.01623 22.5197 8.88384 22.5336 8.75145C22.558 8.55287 22.5824 8.35429 22.5998 8.15571C22.6068 8.10345 22.6103 8.0512 22.6138 7.99894C22.6277 7.86307 22.6381 7.72371 22.6486 7.58784C22.659 7.45197 22.666 7.30913 22.673 7.16978C22.6799 7.07223 22.6834 6.97468 22.6869 6.87365C22.7009 6.55313 22.7078 6.23262 22.7078 5.9121C22.7078 5.74836 22.7078 5.5881 22.7009 5.42785C22.7009 5.34423 22.7009 5.2641 22.6974 5.18049C22.6869 4.89133 22.673 4.60565 22.6521 4.31998V4.30952C22.6486 4.23985 22.6451 4.17017 22.6381 4.10049C22.6242 3.90888 22.6068 3.72075 22.5894 3.52914C22.5895 3.52315 22.5883 3.51719 22.5859 3.51172C23.0553 3.93922 23.4942 4.39906 23.8993 4.88785L23.9098 4.8983C23.9117 4.90018 23.9129 4.90262 23.9132 4.90527C25.9132 7.32241 27.0051 10.3627 26.9999 13.5Z" fill="url(#paint0_linear_320_10890)"/>
  <path d="M22.7078 5.91212C22.7096 10.0794 21.5849 14.1697 19.4525 17.75C17.3201 21.3304 14.2594 24.2676 10.5944 26.2509C10.5899 26.2562 10.5837 26.2599 10.5769 26.2614L10.5735 26.2649C10.3923 26.3624 10.2112 26.4565 10.03 26.5505C8.89305 26.2509 7.8011 25.801 6.78305 25.2127C6.04656 24.7885 5.35139 24.2963 4.70667 23.7425C4.8286 23.6136 4.94705 23.4847 5.0655 23.3524L5.06895 23.3489C5.06895 23.3454 5.07247 23.3419 5.07595 23.3384H5.0794C8.89169 19.1014 10.997 13.601 10.9881 7.90141C10.9886 5.44619 10.6006 3.00632 9.83836 0.672397H9.83492C9.83492 0.665429 9.83143 0.658461 9.83143 0.651493H9.82791C9.82593 0.645888 9.82474 0.640014 9.82446 0.634067C9.75479 0.421551 9.68163 0.209045 9.60498 1.29235e-05H13.4999C16.8608 -0.00464138 20.1018 1.24802 22.5858 3.51174C22.6137 3.77651 22.6346 4.04129 22.652 4.30954C22.6903 4.83909 22.7078 5.37212 22.7078 5.91212Z" fill="url(#paint1_linear_320_10890)"/>
  <path d="M10.9881 7.90141C10.9881 8.13483 10.9846 8.36825 10.9777 8.59818C10.9742 8.74799 10.9672 8.89431 10.9602 9.04412C10.9324 9.64334 10.8801 10.2391 10.8035 10.8313C10.786 10.9846 10.7651 11.1344 10.7408 11.2842C10.7164 11.4689 10.685 11.6501 10.6537 11.8347C10.6258 12.0089 10.5944 12.1796 10.5596 12.3538C10.5526 12.3956 10.5422 12.4374 10.5352 12.4792C10.5073 12.622 10.476 12.7684 10.4446 12.9112C10.281 13.6537 10.0798 14.3874 9.84192 15.1095C9.79663 15.2524 9.74786 15.3917 9.69908 15.5276C9.69483 15.5444 9.68902 15.5607 9.68166 15.5764C9.63289 15.7192 9.58412 15.8551 9.53186 15.9944C9.51792 16.0362 9.5005 16.0815 9.48308 16.1268C9.42734 16.2766 9.36812 16.4229 9.30889 16.5693C9.2427 16.7365 9.17302 16.9037 9.09986 17.0675C9.0267 17.2382 8.95005 17.4089 8.87341 17.5796C8.80025 17.7364 8.7236 17.8931 8.65044 18.0464C8.57031 18.2102 8.49018 18.3704 8.40657 18.5272C8.32296 18.684 8.23934 18.8442 8.15225 19.001C8.06515 19.1578 7.97805 19.3146 7.89096 19.4678C7.80386 19.6211 7.7098 19.7779 7.61573 19.9312C7.52167 20.0845 7.4276 20.2343 7.33005 20.3841C7.13844 20.6837 6.93986 20.9798 6.73431 21.269C6.52877 21.5582 6.31277 21.8438 6.09677 22.126C5.76928 22.5406 5.4302 22.9447 5.07948 23.3384H5.07599C5.07251 23.3419 5.07251 23.3419 5.07251 23.3454C5.07251 23.3463 5.07216 23.3472 5.0715 23.3479C5.07084 23.3485 5.06997 23.3489 5.06903 23.3489C4.95057 23.4813 4.82864 23.6136 4.7067 23.7426C4.15779 23.2708 3.6475 22.7559 3.18078 22.2027C3.17724 22.1961 3.17251 22.1902 3.16684 22.1853C1.11802 19.7554 -0.00392924 16.6784 1.03398e-05 13.5V0H9.60502C9.68166 0.209032 9.75483 0.418064 9.82102 0.63058L9.8245 0.634057C9.82482 0.64 9.826 0.645878 9.82799 0.651483H9.83147V0.661931C9.83126 0.663823 9.83144 0.665739 9.83203 0.667547C9.83265 0.669352 9.83366 0.671007 9.83495 0.672383H9.83844C9.84154 0.68567 9.84621 0.698533 9.85237 0.710702L9.89418 0.846576C10.0126 1.21587 10.1206 1.58864 10.2182 1.96838C10.2879 2.2227 10.3506 2.48399 10.4098 2.74528C10.5178 3.21908 10.6119 3.70335 10.692 4.19458C10.7094 4.31303 10.7303 4.42799 10.7442 4.54645C10.786 4.83561 10.8244 5.12477 10.8557 5.41741C10.8697 5.52541 10.8801 5.6369 10.8871 5.7449C10.908 5.94696 10.9219 6.15251 10.9359 6.35457C10.9707 6.8667 10.9881 7.38231 10.9881 7.90141Z" fill="url(#paint2_linear_320_10890)"/>
  <g style="mix-blend-mode:multiply" opacity="0.15">
    <path d="M6.78305 25.2127C6.04656 24.7885 5.35139 24.2963 4.70667 23.7425C7.63684 20.6239 9.64571 16.7544 10.5103 12.5633C11.375 8.37232 11.0616 4.02373 9.60498 0C9.60498 0 15.6739 9.47263 6.78305 25.2127Z" fill="#BBBBBB"/>
  </g>
  <g style="mix-blend-mode:multiply" opacity="0.15">
    <path d="M12.9495 26.9895C11.9633 26.9492 10.9845 26.802 10.03 26.5505C13.8441 24.6181 17.048 21.6664 19.286 18.0232C21.5239 14.38 22.7084 10.1878 22.7078 5.9121C22.7077 5.11043 22.667 4.30928 22.5859 3.51172C22.5859 3.51172 26.2042 16.632 12.9495 26.9895Z" fill="#BBBBBB"/>
  </g>
  <g style="mix-blend-mode:multiply" opacity="0.25">
    <path d="M22.8195 7.54458C22.7986 7.83026 22.7776 8.12991 22.7567 8.44345C22.7289 8.75352 22.7289 9.08793 22.6696 9.4189C22.6209 9.75335 22.5686 10.1018 22.5164 10.4571C22.4746 10.816 22.3735 11.1713 22.2969 11.5406C22.2238 11.9206 22.1295 12.2963 22.0147 12.6659C21.8997 13.0422 21.7847 13.4219 21.6663 13.8121C21.5269 14.1918 21.3771 14.5715 21.2238 14.9583C21.0845 15.3484 20.8894 15.7178 20.7152 16.0975L20.4469 16.6654C20.3529 16.8535 20.2449 17.0347 20.1438 17.2193C19.9313 17.5782 19.7432 17.9579 19.5063 18.3028C19.2764 18.6511 19.0464 18.9996 18.8165 19.3445C18.3436 20.0001 17.8366 20.6304 17.2975 21.2327C16.7953 21.7967 16.2651 22.335 15.7089 22.8458C15.4337 23.0792 15.1654 23.3056 14.9076 23.5251C14.7787 23.6331 14.6498 23.7376 14.5244 23.8421C14.3955 23.9397 14.2631 24.0338 14.1377 24.1243C13.8833 24.309 13.643 24.4832 13.4095 24.6504C13.1761 24.8176 12.9392 24.9465 12.7267 25.0859C12.2912 25.3472 11.9219 25.5875 11.591 25.7478C10.9882 26.0613 10.6224 26.239 10.5771 26.2599C10.5839 26.2584 10.59 26.2548 10.5946 26.2495C14.2596 24.2662 17.3203 21.3289 19.4526 17.7485C21.5851 14.1682 22.7098 10.0779 22.708 5.91065C22.708 5.37065 22.6906 4.83765 22.6522 4.30811C22.6627 4.3952 22.7045 4.79236 22.7602 5.42643C22.7707 5.61107 22.7986 5.79917 22.7986 6.03258C22.802 6.24858 22.8055 6.48549 22.809 6.73981C22.8125 6.99413 22.816 7.2603 22.8195 7.54458Z" fill="#BBBBBB"/>
  </g>
  <g style="mix-blend-mode:multiply" opacity="0.25">
    <path d="M5.07695 23.3384H5.08087C5.07695 23.3462 5.07302 23.3462 5.06909 23.3502C5.06909 23.3462 5.07302 23.3423 5.07695 23.3384Z" fill="#BBBBBB"/>
  </g>
  <g style="mix-blend-mode:multiply" opacity="0.25">
    <path d="M9.83009 0.651215C9.83186 0.658354 9.8342 0.665342 9.83706 0.672115H9.83357C9.83009 0.665147 9.83009 0.658183 9.8266 0.651215C9.82458 0.64561 9.82343 0.639733 9.82312 0.633789C9.8258 0.639443 9.82814 0.645265 9.83009 0.651215Z" fill="#BBBBBB"/>
  </g>
  <g style="mix-blend-mode:multiply" opacity="0.25">
    <path d="M11.2878 8.20698C11.2939 8.9504 11.259 9.69358 11.1833 10.4332C11.1076 11.1958 10.9925 11.9539 10.8384 12.7046C10.7583 13.0844 10.6747 13.4606 10.5702 13.8299L10.4204 14.3839C10.3611 14.565 10.3054 14.7462 10.2462 14.9274C10.1869 15.1085 10.1312 15.2897 10.072 15.4674C10.0058 15.6415 9.93958 15.8192 9.87339 15.9899C9.74449 16.3418 9.59817 16.6763 9.45184 17.0072C9.31249 17.3417 9.15571 17.6587 8.99894 17.9688C8.84217 18.2788 8.67842 18.5784 8.51468 18.8641C8.35791 19.1533 8.19417 19.4285 8.02346 19.6898C7.85623 19.9511 7.69597 20.2054 7.52875 20.4388C7.36152 20.6723 7.20823 20.9022 7.04797 21.1077C6.88772 21.3133 6.73094 21.5084 6.58462 21.6895C6.28849 22.0519 6.01327 22.3515 5.79727 22.6058C5.39314 23.0273 5.13533 23.2817 5.07959 23.3374C8.89185 19.1004 10.9971 13.6 10.9882 7.9004C10.9888 5.44518 10.6008 3.00531 9.83855 0.671387C9.85597 0.713193 9.88384 0.786354 9.92565 0.89087C9.99184 1.05461 10.0894 1.29848 10.1939 1.61551C10.4931 2.49111 10.7317 3.38626 10.9081 4.2946C11.0293 4.90284 11.12 5.51677 11.1798 6.13408C11.2557 6.82239 11.2917 7.51452 11.2878 8.20698Z" fill="#BBBBBB"/>
  </g>
  <g style="mix-blend-mode:screen" opacity="0.4">
    <path d="M22.7081 5.91264C22.71 10.0799 21.5852 14.1702 19.4528 17.7505C17.3204 21.3309 14.2598 24.2681 10.5947 26.2514C10.6749 26.1957 11.0023 25.9727 11.5214 25.6313C11.8315 25.4467 12.1764 25.1714 12.577 24.8718C12.9881 24.5827 13.4166 24.2099 13.8869 23.8162C14.0054 23.7152 14.1273 23.6142 14.2493 23.5131C14.3642 23.4016 14.4827 23.2902 14.6012 23.1752C14.845 22.9487 15.0924 22.7118 15.3502 22.4715C15.824 21.9524 16.3535 21.4333 16.8308 20.8305C17.3429 20.2592 17.7854 19.6042 18.2662 18.9597C18.4856 18.6218 18.7052 18.2838 18.9247 17.9424C19.1511 17.6045 19.3288 17.2352 19.5343 16.8833C19.6354 16.7057 19.7433 16.5315 19.8339 16.3503L20.0987 15.7998C20.2729 15.434 20.468 15.0787 20.6073 14.6989C20.7571 14.3297 20.907 13.9604 21.0568 13.5946C21.1822 13.2218 21.3076 12.8525 21.4295 12.4902C21.5654 12.1313 21.6386 11.7586 21.7431 11.4067C21.8372 11.0479 21.9521 10.7064 22.0078 10.358C22.1437 9.66824 22.2935 9.01676 22.3597 8.40708C22.405 8.10399 22.4468 7.81134 22.4852 7.53263C22.5095 7.25044 22.5305 6.98218 22.5514 6.73135C22.5723 6.48051 22.5896 6.2436 22.6071 6.0276C22.628 5.82206 22.6175 5.61302 22.6245 5.43186C22.635 4.79432 22.6489 4.39716 22.6524 4.31006C22.6907 4.83961 22.7081 5.37264 22.7081 5.91264Z" fill="white"/>
  </g>
  <g style="mix-blend-mode:screen" opacity="0.4">
    <path d="M10.9882 7.90114C10.9971 13.6007 8.8918 19.1011 5.07954 23.3382C5.07606 23.3451 5.07258 23.3451 5.06909 23.3486C5.06909 23.3451 5.07258 23.3416 5.07606 23.3382C5.12483 23.272 5.34083 22.9793 5.69619 22.516C5.88432 22.2442 6.1247 21.9237 6.37554 21.537C6.62638 21.1503 6.90857 20.7113 7.19077 20.2236C7.34057 19.9832 7.47993 19.7254 7.62277 19.4571C7.7656 19.1889 7.91889 18.9136 8.05825 18.621C8.20457 18.3318 8.35089 18.0357 8.48328 17.7222C8.61567 17.4086 8.76547 17.0986 8.88741 16.7711C9.0198 16.4436 9.15218 16.1126 9.26367 15.7677C9.3856 15.4298 9.50057 15.0814 9.60509 14.7295C9.66083 14.5518 9.71309 14.3742 9.76883 14.1965L9.90818 13.6565C10.0057 13.2977 10.0824 12.9318 10.1555 12.566C10.3124 11.8375 10.4322 11.1015 10.5144 10.3608C10.5945 9.62914 10.6572 8.9045 10.6746 8.20076C10.7432 6.00167 10.5372 3.80265 10.0615 1.65457C9.94651 1.12851 9.86289 0.783599 9.83502 0.672115C9.83154 0.665147 9.83154 0.658183 9.82805 0.651215C9.82607 0.64561 9.82488 0.639733 9.82457 0.633789C9.82725 0.639443 9.82959 0.645265 9.83154 0.651215C9.83331 0.658354 9.83565 0.665342 9.8385 0.672115C10.6007 3.00604 10.9888 5.44589 10.9882 7.90114Z" fill="white"/>
  </g>
  <g style="mix-blend-mode:multiply" opacity="0.25">
    <path d="M27 13.5C26.9999 17.0803 25.5776 20.5141 23.0458 23.0458C20.5141 25.5775 17.0804 26.9998 13.5 27C13.5 27 13.6185 26.9895 13.8414 26.9686C14.0679 26.9547 14.3919 26.9059 14.803 26.8501C15.2141 26.784 15.7088 26.6864 16.2662 26.5471C16.885 26.3783 17.4933 26.1735 18.0883 25.9339C18.7856 25.6437 19.4589 25.2989 20.1019 24.9027C20.8118 24.4583 21.482 23.9536 22.1051 23.3942C22.7674 22.7949 23.3705 22.1334 23.9063 21.4188C24.4623 20.6858 24.9377 19.8951 25.3242 19.0602C25.7191 18.2281 26.0262 17.3571 26.2405 16.4613C26.4476 15.5936 26.5712 14.7082 26.6098 13.817C26.6435 12.979 26.6039 12.1397 26.4913 11.3086C26.3873 10.5615 26.223 9.82397 26.0001 9.10333C25.8092 8.48982 25.5788 7.88934 25.3103 7.30566C25.063 6.78656 24.826 6.34063 24.6135 5.98527C24.401 5.62992 24.2233 5.35121 24.0944 5.17005C23.9969 5.03069 23.9377 4.9436 23.9133 4.90527C25.9132 7.32241 27.0051 10.3627 27 13.5Z" fill="#BBBBBB"/>
  </g>
  <g style="mix-blend-mode:screen" opacity="0.4">
    <path d="M2.17743 0.303095L0.365813 0.348387L0.407616 2.8707C0.425035 3.82529 0.421562 4.78335 0.42853 5.74141C0.435497 6.69947 0.435497 7.65405 0.42853 8.60863C0.421562 9.56321 0.425035 10.5213 0.407616 11.4793L0.383239 12.9147L0.376265 13.6219C0.379748 13.8623 0.372781 14.1062 0.386716 14.3326C0.401554 14.7967 0.442263 15.2596 0.508651 15.7192C0.574845 16.1826 0.668916 16.6424 0.776916 17.0988C0.88724 17.5541 1.02214 18.0029 1.18103 18.4436C1.33781 18.8895 1.52246 19.325 1.72104 19.7535C1.93007 20.1751 2.14258 20.6001 2.39342 21.0077C2.63033 21.4084 2.8951 21.802 3.16684 22.1853C1.11802 19.7554 -0.00392924 16.6783 1.03398e-05 13.5V0H8.70967C7.25689 0.104516 5.80761 0.167223 4.35483 0.226449L2.17743 0.303095Z" fill="white"/>
  </g>
  <path d="M32.9261 18.1705V27H28.6903V11.7273H32.7273V14.4219H32.9062C33.2443 13.5336 33.8111 12.831 34.6065 12.3139C35.402 11.7902 36.3665 11.5284 37.5 11.5284C38.5606 11.5284 39.4853 11.7604 40.2741 12.2244C41.063 12.6884 41.6761 13.3513 42.1136 14.2131C42.5511 15.0682 42.7699 16.089 42.7699 17.2756V27H38.5341V18.0312C38.5407 17.0966 38.3021 16.3674 37.8182 15.8438C37.3343 15.3134 36.6681 15.0483 35.8196 15.0483C35.2495 15.0483 34.7457 15.1709 34.3082 15.4162C33.8774 15.6615 33.5393 16.0194 33.294 16.4901C33.0554 16.9541 32.9328 17.5142 32.9261 18.1705ZM53.0685 27.2983C51.4975 27.2983 50.1452 26.9801 49.0117 26.3438C47.8848 25.7008 47.0165 24.7926 46.4066 23.6193C45.7968 22.4394 45.4918 21.044 45.4918 19.4332C45.4918 17.8622 45.7968 16.4834 46.4066 15.2969C47.0165 14.1103 47.8749 13.1856 48.9819 12.5227C50.0955 11.8598 51.4014 11.5284 52.8995 11.5284C53.9071 11.5284 54.8451 11.6908 55.7134 12.0156C56.5884 12.3338 57.3507 12.8144 58.0004 13.4574C58.6566 14.1004 59.167 14.9091 59.5316 15.8835C59.8962 16.8513 60.0785 17.9848 60.0785 19.2841V20.4474H47.1822V17.8224H56.0913C56.0913 17.2126 55.9587 16.6723 55.6935 16.2017C55.4284 15.7311 55.0605 15.3632 54.5898 15.098C54.1258 14.8262 53.5856 14.6903 52.9691 14.6903C52.3261 14.6903 51.756 14.8395 51.2589 15.1378C50.7683 15.4295 50.3839 15.8239 50.1055 16.321C49.8271 16.8116 49.6845 17.3584 49.6779 17.9616V20.4574C49.6779 21.2131 49.8171 21.866 50.0955 22.4162C50.3806 22.9664 50.7816 23.3906 51.2987 23.6889C51.8157 23.9872 52.4289 24.1364 53.1381 24.1364C53.6088 24.1364 54.0397 24.0701 54.4308 23.9375C54.8219 23.8049 55.1566 23.6061 55.435 23.3409C55.7134 23.0758 55.9255 22.7509 56.0714 22.3665L59.989 22.625C59.7901 23.5663 59.3825 24.3883 58.766 25.0909C58.1561 25.7869 57.3673 26.3305 56.3995 26.7216C55.4383 27.1061 54.328 27.2983 53.0685 27.2983ZM72.3359 27L68.1797 11.7273H72.4652L74.8317 21.9886H74.9709L77.4368 11.7273H81.6428L84.1484 21.929H84.2777L86.6044 11.7273H90.88L86.7337 27H82.2493L79.6243 17.3949H79.4354L76.8104 27H72.3359ZM98.3846 27.2486C97.2246 27.2486 96.1739 26.9503 95.2326 26.3537C94.2979 25.7505 93.5555 24.8655 93.0053 23.6989C92.4618 22.5256 92.19 21.0871 92.19 19.3835C92.19 17.6335 92.4717 16.1785 93.0352 15.0185C93.5986 13.8518 94.3477 12.9801 95.2823 12.4034C96.2236 11.8201 97.2544 11.5284 98.3746 11.5284C99.2298 11.5284 99.9424 11.6742 100.512 11.9659C101.089 12.2509 101.553 12.6089 101.904 13.0398C102.262 13.464 102.534 13.8816 102.72 14.2926H102.849V11.7273H107.075V27H102.899V24.554H102.72C102.521 24.9782 102.239 25.3991 101.875 25.8168C101.517 26.2277 101.049 26.5691 100.473 26.8409C99.9026 27.1127 99.2066 27.2486 98.3846 27.2486ZM99.7269 23.8778C100.41 23.8778 100.986 23.6922 101.457 23.321C101.934 22.9432 102.299 22.4162 102.551 21.7401C102.809 21.0639 102.939 20.2718 102.939 19.3636C102.939 18.4555 102.813 17.6667 102.561 16.9972C102.309 16.3277 101.944 15.8106 101.467 15.446C100.99 15.0814 100.41 14.8991 99.7269 14.8991C99.0309 14.8991 98.4442 15.0881 97.967 15.4659C97.4897 15.8437 97.1284 16.3674 96.8832 17.0369C96.6379 17.7064 96.5153 18.482 96.5153 19.3636C96.5153 20.2519 96.6379 21.0374 96.8832 21.7202C97.1351 22.3963 97.4963 22.9266 97.967 23.3111C98.4442 23.6889 99.0309 23.8778 99.7269 23.8778ZM110.558 6.63636H114.793V22.4261C114.8 22.91 114.886 23.2614 115.052 23.4801C115.224 23.6922 115.516 23.7983 115.927 23.7983C116.139 23.7917 116.305 23.7784 116.424 23.7585C116.543 23.7386 116.643 23.7121 116.722 23.679L117.398 26.7614C117.18 26.8277 116.911 26.8973 116.593 26.9702C116.281 27.0365 115.861 27.0795 115.33 27.0994C113.706 27.1591 112.506 26.8542 111.731 26.1847C110.955 25.5085 110.564 24.4446 110.558 22.9929V6.63636ZM119.39 6.63636H123.625V22.4261C123.632 22.91 123.718 23.2614 123.884 23.4801C124.056 23.6922 124.348 23.7983 124.759 23.7983C124.971 23.7917 125.137 23.7784 125.256 23.7585C125.375 23.7386 125.475 23.7121 125.554 23.679L126.23 26.7614C126.012 26.8277 125.743 26.8973 125.425 26.9702C125.114 27.0365 124.693 27.0795 124.162 27.0994C122.538 27.1591 121.338 26.8542 120.563 26.1847C119.787 25.5085 119.396 24.4446 119.39 22.9929V6.63636ZM134.772 27.2983C133.201 27.2983 131.848 26.9801 130.715 26.3438C129.588 25.7008 128.72 24.7926 128.11 23.6193C127.5 22.4394 127.195 21.044 127.195 19.4332C127.195 17.8622 127.5 16.4834 128.11 15.2969C128.72 14.1103 129.578 13.1856 130.685 12.5227C131.799 11.8598 133.105 11.5284 134.603 11.5284C135.61 11.5284 136.548 11.6908 137.417 12.0156C138.292 12.3338 139.054 12.8144 139.703 13.4574C140.36 14.1004 140.87 14.9091 141.235 15.8835C141.599 16.8513 141.782 17.9848 141.782 19.2841V20.4474H128.885V17.8224H137.794C137.794 17.2126 137.662 16.6723 137.397 16.2017C137.132 15.7311 136.764 15.3632 136.293 15.098C135.829 14.8262 135.289 14.6903 134.672 14.6903C134.029 14.6903 133.459 14.8395 132.962 15.1378C132.471 15.4295 132.087 15.8239 131.809 16.321C131.53 16.8116 131.388 17.3584 131.381 17.9616V20.4574C131.381 21.2131 131.52 21.866 131.799 22.4162C132.084 22.9664 132.485 23.3906 133.002 23.6889C133.519 23.9872 134.132 24.1364 134.841 24.1364C135.312 24.1364 135.743 24.0701 136.134 23.9375C136.525 23.8049 136.86 23.6061 137.138 23.3409C137.417 23.0758 137.629 22.7509 137.775 22.3665L141.692 22.625C141.493 23.5663 141.086 24.3883 140.469 25.0909C139.859 25.7869 139.07 26.3305 138.103 26.7216C137.141 27.1061 136.031 27.2983 134.772 27.2983ZM152.669 11.7273V14.9091H143.472V11.7273H152.669ZM145.56 8.06818H149.796V22.3068C149.796 22.6979 149.855 23.0028 149.975 23.2216C150.094 23.4337 150.26 23.5829 150.472 23.669C150.691 23.7552 150.943 23.7983 151.228 23.7983C151.426 23.7983 151.625 23.7817 151.824 23.7486C152.023 23.7088 152.176 23.679 152.282 23.6591L152.948 26.8111C152.736 26.8774 152.437 26.9536 152.053 27.0398C151.668 27.1326 151.201 27.1889 150.651 27.2088C149.63 27.2486 148.735 27.1127 147.966 26.8011C147.204 26.4896 146.611 26.0057 146.186 25.3494C145.762 24.6932 145.553 23.8646 145.56 22.8636V8.06818Z" fill="white"/>
</svg>