<svg width="223" height="48" viewBox="0 0 223 48" fill="none" xmlns="http://www.w3.org/2000/svg">
  <defs>
    <linearGradient id="paint0_linear_320_10466" x1="37.5985" y1="11.6456" x2="18.7854" y2="33.4101" gradientUnits="userSpaceOnUse">
      <stop stop-color="#4333F5"/>
      <stop offset="1" stop-color="#1E015C"/>
    </linearGradient>
    <linearGradient id="paint1_linear_320_10466" x1="20.8146" y1="2.21746" x2="20.8146" y2="37.0518" gradientUnits="userSpaceOnUse">
      <stop stop-color="#4200FC"/>
      <stop offset="1" stop-color="#5E00F8"/>
    </linearGradient>
    <linearGradient id="paint2_linear_320_10466" x1="8.34283" y1="-0.072107" x2="8.34283" y2="37.4957" gradientUnits="userSpaceOnUse">
      <stop stop-color="#7F53FC"/>
      <stop offset="1" stop-color="#4F00F8"/>
    </linearGradient>
  </defs>
  <path d="M41 20.4999C40.9999 25.9367 38.84 31.1509 34.9955 34.9954C31.151 38.8399 25.9369 40.9997 20.5 40.9998C20.2196 40.9998 19.9445 40.9945 19.6641 40.984C18.1666 40.9228 16.6802 40.6993 15.2308 40.3174C15.5112 40.1745 15.7863 40.0317 16.0614 39.8783C16.0667 39.8783 16.072 39.873 16.0826 39.8677L16.0879 39.8624C16.3788 39.7037 16.6645 39.545 16.9449 39.381C17.0137 39.3387 17.0824 39.3016 17.1512 39.2646C17.4157 39.1059 17.6803 38.9472 17.9395 38.7779C18.0161 38.7364 18.0903 38.6905 18.1617 38.6404C18.3627 38.5187 18.5637 38.3864 18.7595 38.2542C18.897 38.1642 19.0399 38.069 19.1721 37.9791C19.3732 37.8415 19.5689 37.704 19.7646 37.5611C19.8969 37.4712 20.0186 37.3813 20.1455 37.2807C20.3148 37.1644 20.4788 37.0374 20.6428 36.9104C20.791 36.8046 20.9338 36.6935 21.0766 36.5771C21.2777 36.4237 21.4734 36.265 21.6692 36.0957C21.7538 36.0322 21.8384 35.9635 21.9231 35.8894C22.1347 35.7148 22.341 35.5349 22.5473 35.3498C22.6584 35.2546 22.7695 35.1593 22.8806 35.0535C23.0023 34.9477 23.1187 34.8419 23.2351 34.7308C23.4573 34.5298 23.6742 34.3182 23.8911 34.1066C23.9201 34.0828 23.9467 34.0562 23.9704 34.0272C24.1821 33.8262 24.3884 33.6146 24.5894 33.4029C24.7322 33.2654 24.8645 33.1226 24.9915 32.9797C25.1449 32.8263 25.2877 32.6676 25.4306 32.5089C25.5152 32.4189 25.5946 32.329 25.6686 32.2391C25.8591 32.0275 26.0442 31.8106 26.2294 31.5937C26.3246 31.4826 26.4199 31.3662 26.5098 31.2498C26.6473 31.0911 26.7796 30.9324 26.9013 30.7684C27.0282 30.6149 27.1499 30.4562 27.2663 30.2975C27.3774 30.16 27.4832 30.0171 27.5837 29.8796C27.7213 29.6997 27.8535 29.5199 27.9805 29.3347C28.1075 29.1495 28.245 28.9644 28.372 28.7739C28.435 28.6909 28.4933 28.6043 28.5466 28.5147C28.7264 28.2502 28.901 27.9804 29.0703 27.7106C29.2872 27.3773 29.4935 27.0387 29.6893 26.6948C29.7792 26.5467 29.8639 26.3986 29.9485 26.2504C30.6345 25.0405 31.2459 23.7896 31.7789 22.5049C31.8583 22.325 31.9324 22.1451 32.0011 21.96C32.0858 21.7642 32.1599 21.5632 32.2339 21.3622C32.2974 21.1982 32.3609 21.0289 32.4191 20.8596C32.4879 20.6744 32.5513 20.484 32.6148 20.2988C32.8476 19.6217 33.0592 18.9392 33.2444 18.2462C33.292 18.0716 33.3396 17.9023 33.3819 17.7277C33.4137 17.6166 33.4401 17.5108 33.4666 17.3997L33.5935 16.8601C33.7628 16.1248 33.9057 15.3841 34.0273 14.6329L34.1067 14.125C34.1173 14.0457 34.1278 13.9716 34.1384 13.8923C34.1702 13.6912 34.1966 13.4902 34.2178 13.2892C34.2548 12.9876 34.2918 12.6861 34.3183 12.3845C34.3289 12.3052 34.3342 12.2258 34.3395 12.1464C34.3606 11.9401 34.3765 11.7285 34.3924 11.5222C34.4082 11.3159 34.4188 11.099 34.4294 10.8874C34.44 10.7392 34.4453 10.5911 34.4506 10.4377C34.4717 9.95097 34.4823 9.46426 34.4823 8.97755C34.4823 8.7289 34.4823 8.48555 34.4717 8.24219C34.4717 8.11523 34.4717 7.99355 34.4664 7.86658C34.4506 7.42749 34.4294 6.99368 34.3977 6.55987V6.544C34.3924 6.4382 34.3871 6.33239 34.3765 6.22658C34.3553 5.93562 34.3289 5.64994 34.3024 5.35897C34.3026 5.34987 34.3008 5.34083 34.2971 5.33252C35.0099 5.98169 35.6764 6.67996 36.2916 7.42219L36.3075 7.43807C36.3104 7.44092 36.3122 7.44463 36.3127 7.44865C39.3497 11.1191 41.0078 15.7359 41 20.4999Z" fill="url(#paint0_linear_320_10466)"/>
  <path d="M34.4821 8.97767C34.485 15.3057 32.777 21.5169 29.5389 26.9537C26.3008 32.3906 21.6531 36.8508 16.0877 39.8625C16.0809 39.8706 16.0715 39.8762 16.0612 39.8784L16.056 39.8837C15.7809 40.0318 15.5058 40.1747 15.2307 40.3175C13.5042 39.8625 11.8461 39.1793 10.3001 38.286C9.18175 37.6419 8.12612 36.8944 7.14709 36.0535C7.33226 35.8578 7.51213 35.662 7.692 35.461L7.69723 35.4557C7.69723 35.4504 7.70258 35.4451 7.70787 35.4398H7.71311C13.5021 29.0059 16.6991 20.6535 16.6855 11.9984C16.6864 8.27014 16.0971 4.56516 14.9397 1.02105H14.9344C14.9344 1.01047 14.9292 0.999886 14.9292 0.989305H14.9238C14.9208 0.980793 14.919 0.971874 14.9186 0.962843C14.8128 0.640134 14.7017 0.317439 14.5853 1.96246e-05H20.4999C25.6033 -0.00704803 30.5248 1.89513 34.2969 5.33264C34.3393 5.7347 34.371 6.13677 34.3975 6.54412C34.4557 7.34825 34.4821 8.15767 34.4821 8.97767Z" fill="url(#paint1_linear_320_10466)"/>
  <path d="M16.6857 11.9984C16.6857 12.3529 16.6804 12.7073 16.6698 13.0565C16.6645 13.284 16.6539 13.5062 16.6433 13.7337C16.601 14.6436 16.5217 15.5482 16.4053 16.4476C16.3788 16.6804 16.3471 16.9079 16.31 17.1353C16.273 17.4157 16.2254 17.6908 16.1778 17.9712C16.1355 18.2357 16.0879 18.4949 16.035 18.7595C16.0244 18.8229 16.0085 18.8864 15.9979 18.9499C15.9556 19.1668 15.908 19.389 15.8604 19.6059C15.6119 20.7334 15.3064 21.8475 14.9451 22.9441C14.8764 23.161 14.8023 23.3726 14.7282 23.5789C14.7218 23.6044 14.713 23.6292 14.7018 23.653C14.6277 23.8699 14.5537 24.0762 14.4743 24.2878C14.4531 24.3513 14.4267 24.4201 14.4002 24.4889C14.3156 24.7164 14.2257 24.9386 14.1357 25.1608C14.0352 25.4147 13.9294 25.6686 13.8183 25.9173C13.7072 26.1765 13.5908 26.4357 13.4744 26.6949C13.3633 26.933 13.247 27.1711 13.1359 27.4038C13.0142 27.6525 12.8925 27.8958 12.7655 28.1339C12.6386 28.372 12.5116 28.6153 12.3793 28.8534C12.2471 29.0915 12.1148 29.3295 11.9826 29.5623C11.8503 29.7951 11.7075 30.0331 11.5646 30.2659C11.4218 30.4987 11.279 30.7262 11.1308 30.9536C10.8399 31.4086 10.5383 31.8583 10.2262 32.2974C9.91405 32.7365 9.58606 33.1703 9.25806 33.5988C8.76077 34.2284 8.24586 34.842 7.71328 35.4398H7.70799C7.7027 35.4451 7.7027 35.4451 7.7027 35.4504C7.7027 35.4518 7.70217 35.4532 7.70117 35.4542C7.70016 35.4551 7.69884 35.4557 7.69741 35.4557C7.51754 35.6567 7.33238 35.8578 7.14722 36.0535C6.31368 35.3372 5.5388 34.5552 4.83008 33.7152C4.8247 33.7051 4.81752 33.6962 4.80891 33.6887C1.69773 29.9989 -0.00596663 25.3264 1.57012e-05 20.5V0H14.5854C14.7018 0.317419 14.8129 0.634838 14.9134 0.957547L14.9187 0.962827C14.9192 0.971852 14.921 0.980777 14.924 0.989289H14.9293V1.00515C14.929 1.00803 14.9292 1.01094 14.9301 1.01368C14.9311 1.01642 14.9326 1.01894 14.9346 1.02103H14.9399C14.9446 1.0412 14.9517 1.06074 14.961 1.07921L15.0245 1.28554C15.2044 1.84632 15.3684 2.41238 15.5165 2.98902C15.6223 3.37522 15.7175 3.77198 15.8075 4.16875C15.9715 4.88824 16.1143 5.62361 16.236 6.36954C16.2624 6.54941 16.2942 6.72399 16.3153 6.90386C16.3788 7.34296 16.437 7.78206 16.4846 8.22644C16.5058 8.39044 16.5217 8.55973 16.5322 8.72373C16.564 9.03057 16.5851 9.3427 16.6063 9.64954C16.6592 10.4272 16.6857 11.2102 16.6857 11.9984Z" fill="url(#paint2_linear_320_10466)"/>
  <g style="mix-blend-mode:multiply" opacity="0.15">
    <path d="M10.3001 38.286C9.18175 37.6418 8.12612 36.8944 7.14709 36.0535C11.5966 31.3177 14.6471 25.4418 15.9601 19.0777C17.2731 12.7135 16.7972 6.11011 14.5853 0C14.5853 0 23.801 14.3844 10.3001 38.286Z" fill="#0B0B0B"/>
  </g>
  <g style="mix-blend-mode:multiply" opacity="0.15">
    <path d="M19.6641 40.984C18.1666 40.9228 16.6802 40.6993 15.2308 40.3174C21.0226 37.383 25.8878 32.9007 29.2862 27.3684C32.6845 21.8361 34.4831 15.4702 34.4823 8.97755C34.4821 7.76019 34.4203 6.54363 34.2971 5.33252C34.2971 5.33252 39.7917 25.2559 19.6641 40.984Z" fill="#0B0B0B"/>
  </g>
  <g style="mix-blend-mode:multiply" opacity="0.25">
    <path d="M34.6517 11.4571C34.62 11.8909 34.5882 12.346 34.5565 12.8221C34.5142 13.2929 34.5142 13.8007 34.4242 14.3033C34.3502 14.8112 34.2708 15.3403 34.1914 15.8799C34.128 16.4248 33.9745 16.9644 33.8582 17.5251C33.7472 18.1022 33.6041 18.6728 33.4296 19.234C33.2551 19.8053 33.0805 20.382 32.9006 20.9745C32.689 21.5511 32.4615 22.1277 32.2287 22.7149C32.0171 23.3074 31.7209 23.8683 31.4563 24.4449L31.049 25.3072C30.9062 25.5929 30.7422 25.868 30.5887 26.1484C30.266 26.6933 29.9803 27.2699 29.6206 27.7936C29.2714 28.3227 28.9223 28.8517 28.5731 29.3755C27.8551 30.371 27.0851 31.3281 26.2665 32.2428C25.5039 33.0992 24.6988 33.9167 23.8542 34.6923C23.4362 35.0467 23.0289 35.3906 22.6374 35.7239C22.4416 35.8879 22.2459 36.0465 22.0555 36.2052C21.8597 36.3534 21.6587 36.4963 21.4682 36.6338C21.082 36.9142 20.717 37.1787 20.3626 37.4326C20.0081 37.6866 19.6484 37.8823 19.3256 38.0939C18.6644 38.4907 18.1036 38.8557 17.601 39.099C16.6858 39.5752 16.1303 39.845 16.0615 39.8767C16.0718 39.8745 16.0811 39.8689 16.088 39.8608C21.6534 36.8492 26.3011 32.3889 29.5391 26.952C32.7772 21.5152 34.4852 15.304 34.4824 8.97597C34.4824 8.15597 34.456 7.34661 34.3978 6.54248C34.4136 6.67474 34.4771 7.27783 34.5618 8.24067C34.5776 8.52106 34.62 8.80668 34.62 9.16113C34.6252 9.48913 34.6305 9.84888 34.6358 10.2351C34.6411 10.6213 34.6464 11.0254 34.6517 11.4571Z" fill="#0B0B0B"/>
  </g>
  <g style="mix-blend-mode:multiply" opacity="0.25">
    <path d="M7.7084 35.4399H7.7139C7.7084 35.451 7.70289 35.451 7.69739 35.4565C7.69739 35.451 7.70289 35.4454 7.7084 35.4399Z" fill="#0B0B0B"/>
  </g>
  <g style="mix-blend-mode:multiply" opacity="0.25">
    <path d="M14.9273 0.989353C14.93 1.00019 14.9336 1.01081 14.9379 1.02109H14.9326C14.9273 1.01051 14.9273 0.999933 14.922 0.989353C14.919 0.980841 14.9172 0.971916 14.9167 0.962891C14.9208 0.971477 14.9244 0.980317 14.9273 0.989353Z" fill="#0B0B0B"/>
  </g>
  <g style="mix-blend-mode:multiply" opacity="0.25">
    <path d="M17.1406 12.462C17.1499 13.5909 17.0969 14.7194 16.9819 15.8425C16.8669 17.0005 16.6921 18.1518 16.4582 19.2918C16.3365 19.8684 16.2095 20.4398 16.0508 21.0006L15.8233 21.8417C15.7334 22.1168 15.6487 22.3919 15.5588 22.667C15.4689 22.9421 15.3842 23.2172 15.2943 23.487C15.1938 23.7515 15.0933 24.0213 14.9927 24.2806C14.797 24.8149 14.5748 25.3227 14.3526 25.8253C14.141 26.3332 13.9029 26.8146 13.6649 27.2855C13.4268 27.7563 13.1782 28.2113 12.9295 28.6451C12.6914 29.0842 12.4428 29.5021 12.1836 29.8989C11.9296 30.2956 11.6863 30.6818 11.4324 31.0363C11.1784 31.3907 10.9456 31.7399 10.7023 32.052C10.4589 32.3642 10.2209 32.6604 9.99867 32.9355C9.549 33.4857 9.13106 33.9407 8.80306 34.3269C8.18939 34.967 7.7979 35.3532 7.71326 35.4378C13.5022 29.0038 16.6992 20.6514 16.6856 11.9964C16.6865 8.26814 16.0973 4.56315 14.9398 1.01904C14.9663 1.08253 15.0086 1.19362 15.0721 1.35233C15.1726 1.60098 15.3207 1.97129 15.4794 2.45271C15.9338 3.78233 16.2961 5.14162 16.564 6.52096C16.7481 7.44459 16.8858 8.37685 16.9766 9.31424C17.0918 10.3595 17.1465 11.4105 17.1406 12.462Z" fill="#0B0B0B"/>
  </g>
  <g style="mix-blend-mode:screen" opacity="0.4">
    <path d="M34.4824 8.97798C34.4852 15.306 32.7773 21.5172 29.5392 26.954C26.3011 32.3909 21.6534 36.8511 16.088 39.8628C16.2097 39.7782 16.707 39.4396 17.4952 38.9212C17.9661 38.6408 18.4898 38.2228 19.0982 37.7679C19.7225 37.3288 20.3731 36.7627 21.0873 36.1649C21.2672 36.0115 21.4523 35.8581 21.6375 35.7047C21.8121 35.5354 21.992 35.3661 22.1719 35.1915C22.5422 34.8476 22.9178 34.4879 23.3093 34.1229C24.0287 33.3346 24.8329 32.5463 25.5577 31.6311C26.3353 30.7635 27.0072 29.7689 27.7372 28.7902C28.0705 28.2771 28.4039 27.7639 28.7372 27.2454C29.081 26.7323 29.3508 26.1715 29.663 25.6372C29.8164 25.3674 29.9803 25.1029 30.1179 24.8278L30.52 23.9919C30.7845 23.4364 31.0807 22.8968 31.2923 22.3202C31.5198 21.7594 31.7474 21.1986 31.9748 20.6431C32.1653 20.0771 32.3557 19.5163 32.5409 18.9661C32.7472 18.4212 32.8583 17.8551 33.017 17.3208C33.1599 16.7759 33.3344 16.2575 33.419 15.7284C33.6254 14.6809 33.8528 13.6917 33.9534 12.7658C34.0221 12.3056 34.0857 11.8612 34.1439 11.438C34.1809 11.0095 34.2126 10.6021 34.2444 10.2212C34.2761 9.8403 34.3025 9.48056 34.329 9.15256C34.3607 8.84043 34.3449 8.52301 34.3555 8.24792C34.3713 7.27979 34.3925 6.67669 34.3977 6.54443C34.4559 7.34856 34.4824 8.15798 34.4824 8.97798Z" fill="white"/>
  </g>
  <g style="mix-blend-mode:screen" opacity="0.4">
    <path d="M16.6856 11.9985C16.6992 20.6535 13.5022 29.0059 7.71326 35.4399C7.70797 35.4505 7.70268 35.4505 7.69739 35.4558C7.69739 35.4505 7.70268 35.4452 7.70797 35.4399C7.78203 35.3394 8.11003 34.895 8.64964 34.1914C8.93532 33.7787 9.30035 33.292 9.68126 32.7048C10.0622 32.1176 10.4907 31.451 10.9192 30.7104C11.1467 30.3453 11.3583 29.9538 11.5752 29.5465C11.7921 29.1391 12.0249 28.7212 12.2365 28.2768C12.4587 27.8377 12.6809 27.388 12.8819 26.9119C13.0829 26.4358 13.3104 25.9649 13.4956 25.4677C13.6966 24.9704 13.8976 24.4678 14.0669 23.944C14.2521 23.4309 14.4267 22.9019 14.5854 22.3675C14.67 22.0977 14.7494 21.8279 14.834 21.5581L15.0456 20.7381C15.1938 20.1932 15.3102 19.6377 15.4213 19.0822C15.6595 17.9759 15.8414 16.8582 15.9662 15.7335C16.0878 14.6225 16.1831 13.5221 16.2095 12.4535C16.3136 9.11412 16.0008 5.77487 15.2784 2.51296C15.1038 1.71413 14.9769 1.19038 14.9345 1.02109C14.9293 1.01051 14.9293 0.999933 14.924 0.989353C14.9209 0.980841 14.9191 0.971916 14.9187 0.962891C14.9227 0.971477 14.9263 0.980317 14.9293 0.989353C14.932 1.00019 14.9355 1.01081 14.9398 1.02109C16.0973 4.5652 16.6865 8.27016 16.6856 11.9985Z" fill="white"/>
  </g>
  <g style="mix-blend-mode:multiply" opacity="0.25">
    <path d="M41 20.4999C40.9998 25.9368 38.84 31.151 34.9955 34.9955C31.151 38.8399 25.9369 40.9998 20.5 40.9999C20.5 40.9999 20.6799 40.9841 21.0185 40.9523C21.3623 40.9312 21.8543 40.8571 22.4786 40.7724C23.1028 40.6719 23.8541 40.5238 24.7005 40.3122C25.6401 40.0559 26.5639 39.745 27.4673 39.3811C28.5263 38.9405 29.5487 38.4168 30.5252 37.8152C31.6031 37.1404 32.6209 36.374 33.5671 35.5244C34.5727 34.6144 35.4886 33.6099 36.3022 32.5248C37.1465 31.4118 37.8684 30.211 38.4553 28.9433C39.055 27.6797 39.5213 26.357 39.8467 24.9967C40.1611 23.6792 40.3489 22.3346 40.4075 20.9814C40.4587 19.7088 40.3986 18.4343 40.2276 17.1723C40.0697 16.0378 39.8202 14.9179 39.4817 13.8236C39.1918 12.8919 38.8419 11.9801 38.4342 11.0938C38.0586 10.3055 37.6988 9.62834 37.3761 9.08873C37.0534 8.54912 36.7836 8.12589 36.5879 7.85079C36.4397 7.63918 36.3498 7.50692 36.3128 7.44873C39.3497 11.1192 41.0078 15.736 41 20.4999Z" fill="#0B0B0B"/>
  </g>
  <g style="mix-blend-mode:screen" opacity="0.4">
    <path d="M3.30646 0.460255L0.555494 0.529032L0.618972 4.35922C0.645424 5.80877 0.64015 7.26361 0.65073 8.71844C0.661311 10.1733 0.661311 11.6228 0.65073 13.0724C0.64015 14.5219 0.645424 15.9768 0.618972 17.4316L0.581956 19.6112L0.571365 20.6851C0.576655 21.0502 0.566075 21.4205 0.587236 21.7644C0.609767 22.4691 0.671585 23.1721 0.772397 23.8699C0.872913 24.5735 1.01576 25.2718 1.17976 25.9649C1.34729 26.6562 1.55213 27.3378 1.79342 28.0069C2.03149 28.6841 2.31188 29.3454 2.61343 29.9961C2.93085 30.6362 3.25356 31.2816 3.63446 31.9006C3.9942 32.509 4.39627 33.1068 4.80892 33.6887C1.69773 29.9989 -0.00596663 25.3264 1.57012e-05 20.5V0H13.2258C11.0197 0.15871 8.81896 0.253932 6.6129 0.343867L3.30646 0.460255Z" fill="white"/>
  </g>
  <path d="M49.4659 26.3864V39H43.4148V17.1818H49.1818V21.0312H49.4375C49.9205 19.7623 50.7301 18.7585 51.8665 18.0199C53.0028 17.2718 54.3807 16.8977 56 16.8977C57.5152 16.8977 58.8362 17.2292 59.9631 17.892C61.09 18.5549 61.9659 19.5019 62.5909 20.733C63.2159 21.9545 63.5284 23.4129 63.5284 25.108V39H57.4773V26.1875C57.4867 24.8523 57.1458 23.8106 56.4545 23.0625C55.7633 22.3049 54.8116 21.9261 53.5994 21.9261C52.785 21.9261 52.0653 22.1013 51.4403 22.4517C50.8248 22.8021 50.3419 23.3134 49.9915 23.9858C49.6506 24.6487 49.4754 25.4489 49.4659 26.3864ZM78.2408 39.4261C75.9964 39.4261 74.0646 38.9716 72.4453 38.0625C70.8355 37.1439 69.5949 35.8466 68.7237 34.1705C67.8525 32.4848 67.4169 30.4915 67.4169 28.1903C67.4169 25.946 67.8525 23.9763 68.7237 22.2812C69.5949 20.5862 70.8213 19.2652 72.4027 18.3182C73.9936 17.3712 75.8591 16.8977 77.9993 16.8977C79.4387 16.8977 80.7786 17.1297 82.0192 17.5938C83.2692 18.0483 84.3582 18.7348 85.2862 19.6534C86.2237 20.572 86.9529 21.7273 87.4737 23.1193C87.9946 24.5019 88.255 26.1212 88.255 27.9773V29.6392H69.8317V25.8892H82.5589C82.5589 25.018 82.3696 24.2462 81.9908 23.5739C81.612 22.9015 81.0864 22.3759 80.4141 21.9972C79.7512 21.6089 78.9794 21.4148 78.0987 21.4148C77.1802 21.4148 76.3658 21.6278 75.6555 22.054C74.9548 22.4706 74.4055 23.0341 74.0078 23.7443C73.6101 24.4451 73.4065 25.2263 73.397 26.0881V29.6534C73.397 30.733 73.5959 31.6657 73.9936 32.4517C74.4008 33.2377 74.9737 33.8438 75.7124 34.2699C76.451 34.696 77.3269 34.9091 78.3402 34.9091C79.0125 34.9091 79.6281 34.8144 80.1868 34.625C80.7455 34.4356 81.2237 34.1515 81.6214 33.7727C82.0192 33.3939 82.3222 32.9299 82.5305 32.3807L88.1271 32.75C87.843 34.0947 87.2607 35.2689 86.38 36.2727C85.5088 37.267 84.3819 38.0436 82.9993 38.6023C81.6262 39.1515 80.04 39.4261 78.2408 39.4261ZM105.766 39L99.8281 17.1818H105.95L109.331 31.8409H109.53L113.053 17.1818H119.061L122.641 31.7557H122.825L126.149 17.1818H132.257L126.334 39H119.928L116.178 25.2784H115.908L112.158 39H105.766ZM142.978 39.3551C141.321 39.3551 139.82 38.929 138.475 38.0767C137.14 37.215 136.079 35.9508 135.293 34.2841C134.517 32.608 134.129 30.553 134.129 28.1193C134.129 25.6193 134.531 23.5407 135.336 21.8835C136.141 20.2169 137.211 18.9716 138.546 18.1477C139.891 17.3144 141.363 16.8977 142.964 16.8977C144.185 16.8977 145.203 17.1061 146.018 17.5227C146.842 17.9299 147.504 18.4413 148.006 19.0568C148.518 19.6629 148.906 20.2595 149.171 20.8466H149.356V17.1818H155.393V39H149.427V35.5057H149.171C148.887 36.1117 148.485 36.7131 147.964 37.3097C147.452 37.8968 146.785 38.3845 145.961 38.7727C145.147 39.161 144.152 39.3551 142.978 39.3551ZM144.896 34.5398C145.871 34.5398 146.695 34.2746 147.367 33.7443C148.049 33.2045 148.57 32.4517 148.93 31.4858C149.299 30.5199 149.484 29.3883 149.484 28.0909C149.484 26.7936 149.304 25.6667 148.944 24.7102C148.584 23.7538 148.063 23.0152 147.381 22.4943C146.7 21.9735 145.871 21.7131 144.896 21.7131C143.901 21.7131 143.063 21.983 142.381 22.5227C141.7 23.0625 141.183 23.8106 140.833 24.767C140.483 25.7235 140.308 26.8314 140.308 28.0909C140.308 29.3598 140.483 30.482 140.833 31.4574C141.193 32.4233 141.709 33.1809 142.381 33.7301C143.063 34.2699 143.901 34.5398 144.896 34.5398ZM160.368 9.90909H166.419V32.4659C166.429 33.1572 166.552 33.6591 166.788 33.9716C167.035 34.2746 167.451 34.4261 168.038 34.4261C168.341 34.4167 168.578 34.3977 168.749 34.3693C168.919 34.3409 169.061 34.303 169.175 34.2557L170.141 38.6591C169.828 38.7538 169.445 38.8532 168.99 38.9574C168.545 39.0521 167.944 39.1136 167.186 39.142C164.866 39.2273 163.152 38.7917 162.044 37.8352C160.936 36.8693 160.377 35.3494 160.368 33.2756V9.90909ZM172.985 9.90909H179.036V32.4659C179.046 33.1572 179.169 33.6591 179.406 33.9716C179.652 34.2746 180.068 34.4261 180.656 34.4261C180.959 34.4167 181.195 34.3977 181.366 34.3693C181.536 34.3409 181.678 34.303 181.792 34.2557L182.758 38.6591C182.445 38.7538 182.062 38.8532 181.607 38.9574C181.162 39.0521 180.561 39.1136 179.803 39.142C177.483 39.2273 175.769 38.7917 174.661 37.8352C173.553 36.8693 172.995 35.3494 172.985 33.2756V9.90909ZM194.96 39.4261C192.715 39.4261 190.783 38.9716 189.164 38.0625C187.554 37.1439 186.314 35.8466 185.442 34.1705C184.571 32.4848 184.136 30.4915 184.136 28.1903C184.136 25.946 184.571 23.9763 185.442 22.2812C186.314 20.5862 187.54 19.2652 189.121 18.3182C190.712 17.3712 192.578 16.8977 194.718 16.8977C196.157 16.8977 197.497 17.1297 198.738 17.5938C199.988 18.0483 201.077 18.7348 202.005 19.6534C202.942 20.572 203.672 21.7273 204.192 23.1193C204.713 24.5019 204.974 26.1212 204.974 27.9773V29.6392H186.55V25.8892H199.278C199.278 25.018 199.088 24.2462 198.71 23.5739C198.331 22.9015 197.805 22.3759 197.133 21.9972C196.47 21.6089 195.698 21.4148 194.817 21.4148C193.899 21.4148 193.085 21.6278 192.374 22.054C191.674 22.4706 191.124 23.0341 190.727 23.7443C190.329 24.4451 190.125 25.2263 190.116 26.0881V29.6534C190.116 30.733 190.315 31.6657 190.712 32.4517C191.12 33.2377 191.692 33.8438 192.431 34.2699C193.17 34.696 194.046 34.9091 195.059 34.9091C195.731 34.9091 196.347 34.8144 196.906 34.625C197.464 34.4356 197.942 34.1515 198.34 33.7727C198.738 33.3939 199.041 32.9299 199.249 32.3807L204.846 32.75C204.562 34.0947 203.979 35.2689 203.099 36.2727C202.228 37.267 201.101 38.0436 199.718 38.6023C198.345 39.1515 196.759 39.4261 194.96 39.4261ZM220.528 17.1818V21.7273H207.388V17.1818H220.528ZM210.371 11.9545H216.423V32.2955C216.423 32.8542 216.508 33.2898 216.678 33.6023C216.849 33.9053 217.085 34.1184 217.388 34.2415C217.701 34.3646 218.061 34.4261 218.468 34.4261C218.752 34.4261 219.036 34.4025 219.32 34.3551C219.604 34.2983 219.822 34.2557 219.974 34.2273L220.925 38.7301C220.622 38.8248 220.196 38.9337 219.647 39.0568C219.098 39.1894 218.43 39.2699 217.644 39.2983C216.186 39.3551 214.907 39.161 213.809 38.7159C212.72 38.2708 211.872 37.5795 211.266 36.642C210.66 35.7045 210.362 34.5208 210.371 33.0909V11.9545Z" fill="#0B0B0B"/>
</svg>