<svg width="56" height="56" viewBox="0 0 56 56" fill="none" xmlns="http://www.w3.org/2000/svg">
  <defs>
    <linearGradient id="paint0_linear_320_11604" x1="51.3539" y1="15.9065" x2="25.658" y2="45.6336" gradientUnits="userSpaceOnUse">
      <stop stop-color="#4333F5"/>
      <stop offset="1" stop-color="#1E015C"/>
    </linearGradient>
    <linearGradient id="paint1_linear_320_11604" x1="28.4301" y1="3.02873" x2="28.4301" y2="50.6073" gradientUnits="userSpaceOnUse">
      <stop stop-color="#4200FC"/>
      <stop offset="1" stop-color="#5E00F8"/>
    </linearGradient>
    <linearGradient id="paint2_linear_320_11604" x1="11.3951" y1="-0.0984876" x2="11.3951" y2="51.2136" gradientUnits="userSpaceOnUse">
      <stop stop-color="#7F53FC"/>
      <stop offset="1" stop-color="#4F00F8"/>
    </linearGradient>
  </defs>
  <path d="M55.9998 28.0001C55.9997 35.426 53.0496 42.5478 47.7986 47.7988C42.5476 53.0498 35.4259 55.9998 27.9999 56C27.6169 56 27.2412 55.9928 26.8582 55.9783C24.8128 55.8948 22.7826 55.5895 20.803 55.0679C21.1859 54.8728 21.5617 54.6777 21.9374 54.4681C21.9447 54.4681 21.9519 54.4609 21.9663 54.4537L21.9736 54.4465C22.371 54.2297 22.7612 54.0129 23.1441 53.7889C23.2381 53.7311 23.332 53.6805 23.4259 53.63C23.7872 53.4132 24.1485 53.1964 24.5026 52.9652C24.6073 52.9085 24.7086 52.8457 24.8061 52.7773C25.0807 52.6111 25.3552 52.4305 25.6226 52.2498C25.8105 52.127 26.0056 51.9969 26.1862 51.8741C26.4608 51.6862 26.7281 51.4983 26.9955 51.3032C27.1761 51.1804 27.3423 51.0576 27.5157 50.9203C27.747 50.7613 27.971 50.5879 28.195 50.4145C28.3973 50.27 28.5924 50.1182 28.7875 49.9592C29.0621 49.7497 29.3294 49.5329 29.5968 49.3017C29.7124 49.215 29.828 49.1211 29.9436 49.0199C30.2326 48.7814 30.5144 48.5358 30.7963 48.2829C30.948 48.1528 31.0997 48.0227 31.2515 47.8782C31.4177 47.7337 31.5766 47.5892 31.7356 47.4374C32.0391 47.1629 32.3353 46.8738 32.6316 46.5848C32.6713 46.5524 32.7076 46.5161 32.74 46.4764C33.029 46.2018 33.3108 45.9128 33.5854 45.6238C33.7805 45.4359 33.9612 45.2408 34.1346 45.0457C34.3441 44.8362 34.5392 44.6194 34.7343 44.4026C34.8499 44.2798 34.9583 44.1569 35.0595 44.0341C35.3196 43.7451 35.5725 43.4488 35.8254 43.1525C35.9555 43.0008 36.0855 42.8418 36.2084 42.6829C36.3962 42.4661 36.5769 42.2493 36.7431 42.0253C36.9165 41.8158 37.0827 41.599 37.2417 41.3822C37.3934 41.1944 37.5379 40.9993 37.6752 40.8114C37.8631 40.5657 38.0437 40.32 38.2171 40.0671C38.3906 39.8142 38.5784 39.5613 38.7519 39.3012C38.8379 39.1878 38.9175 39.0695 38.9903 38.9471C39.236 38.5858 39.4744 38.2173 39.7057 37.8488C40.0019 37.3936 40.2837 36.9311 40.5511 36.4615C40.6739 36.2591 40.7895 36.0568 40.9051 35.8545C41.8422 34.2019 42.6772 32.4933 43.4053 30.7386C43.5137 30.493 43.6148 30.2473 43.7088 29.9944C43.8244 29.727 43.9255 29.4524 44.0267 29.1779C44.1134 28.9539 44.2001 28.7226 44.2796 28.4914C44.3735 28.2385 44.4602 27.9784 44.5469 27.7255C44.8649 26.8006 45.1539 25.8684 45.4068 24.9219C45.4718 24.6834 45.5369 24.4522 45.5947 24.2137C45.638 24.062 45.6742 23.9175 45.7103 23.7657L45.8837 23.0287C46.1149 22.0243 46.31 21.0127 46.4762 19.9866L46.5846 19.293C46.5991 19.1846 46.6135 19.0834 46.628 18.975C46.6713 18.7005 46.7075 18.4259 46.7364 18.1513C46.7869 17.7394 46.8375 17.3275 46.8737 16.9157C46.8881 16.8073 46.8953 16.6989 46.9026 16.5905C46.9315 16.3087 46.9531 16.0197 46.9748 15.7379C46.9965 15.4561 47.0109 15.1598 47.0254 14.8708C47.0398 14.6685 47.0471 14.4661 47.0543 14.2566C47.0832 13.5918 47.0977 12.927 47.0977 12.2623C47.0977 11.9227 47.0977 11.5903 47.0832 11.2579C47.0832 11.0845 47.0832 10.9183 47.076 10.7448C47.0543 10.1451 47.0254 9.55259 46.982 8.96008V8.9384C46.9748 8.79388 46.9676 8.64937 46.9531 8.50485C46.9242 8.10743 46.8881 7.71724 46.852 7.31982C46.8522 7.30739 46.8497 7.29504 46.8447 7.28369C47.8183 8.17037 48.7286 9.1241 49.5689 10.1379L49.5905 10.1596C49.5945 10.1635 49.5971 10.1685 49.5978 10.174C53.7458 15.1873 56.0105 21.4931 55.9998 28.0001Z" fill="url(#paint0_linear_320_11604)"/>
  <path d="M47.0978 12.2622C47.1017 20.9054 44.7689 29.3889 40.3461 36.8148C35.9234 44.2407 29.5753 50.3328 21.9738 54.4464C21.9644 54.4574 21.9517 54.465 21.9376 54.4681L21.9304 54.4753C21.5547 54.6776 21.179 54.8727 20.8032 55.0678C18.4451 54.4463 16.1803 53.5132 14.0688 52.2931C12.5412 51.4133 11.0994 50.3923 9.76221 49.2438C10.0151 48.9765 10.2608 48.7091 10.5065 48.4345L10.5136 48.4273C10.5136 48.4201 10.5209 48.4128 10.5281 48.4056H10.5353C18.4423 39.6177 22.8088 28.2096 22.7903 16.3881C22.7915 11.2958 21.9867 6.23534 20.4057 1.3946H20.3986C20.3986 1.38015 20.3914 1.3657 20.3914 1.35125H20.3841C20.3799 1.33962 20.3775 1.32744 20.3769 1.3151C20.2324 0.874329 20.0806 0.433575 19.9217 2.68043e-05H28.0001C34.9707 -0.00962657 41.6928 2.58848 46.8449 7.2836C46.9027 7.83276 46.9461 8.38192 46.9822 8.93831C47.0617 10.0366 47.0978 11.1422 47.0978 12.2622Z" fill="url(#paint1_linear_320_11604)"/>
  <path d="M22.7902 16.3881C22.7902 16.8722 22.7829 17.3564 22.7685 17.8333C22.7613 18.144 22.7468 18.4475 22.7324 18.7582C22.6745 20.001 22.5662 21.2366 22.4072 22.465C22.3711 22.7829 22.3277 23.0936 22.2771 23.4044C22.2266 23.7873 22.1615 24.1631 22.0965 24.546C22.0387 24.9073 21.9736 25.2614 21.9014 25.6227C21.8869 25.7094 21.8653 25.7961 21.8508 25.8828C21.793 26.1791 21.728 26.4825 21.6629 26.7788C21.3235 28.3188 20.9063 29.8405 20.4129 31.3383C20.3189 31.6345 20.2178 31.9236 20.1166 32.2054C20.1078 32.2401 20.0957 32.274 20.0805 32.3065C19.9793 32.6028 19.8782 32.8846 19.7698 33.1736C19.7409 33.2603 19.7047 33.3543 19.6686 33.4482C19.553 33.7589 19.4302 34.0624 19.3073 34.3659C19.17 34.7127 19.0255 35.0596 18.8738 35.3992C18.722 35.7533 18.5631 36.1073 18.4041 36.4614C18.2524 36.7865 18.0934 37.1117 17.9417 37.4296C17.7755 37.7692 17.6093 38.1016 17.4358 38.4268C17.2624 38.752 17.089 39.0843 16.9084 39.4095C16.7277 39.7347 16.5471 40.0598 16.3664 40.3778C16.1858 40.6957 15.9907 41.0209 15.7956 41.3388C15.6005 41.6567 15.4054 41.9674 15.2031 42.2781C14.8057 42.8996 14.3938 43.5138 13.9675 44.1135C13.5411 44.7132 13.0931 45.3058 12.6451 45.891C11.9659 46.7509 11.2626 47.5891 10.5352 48.4056H10.528C10.5208 48.4128 10.5208 48.4128 10.5208 48.4201C10.5208 48.422 10.52 48.4238 10.5187 48.4252C10.5173 48.4265 10.5155 48.4273 10.5135 48.4273C10.2679 48.7019 10.015 48.9765 9.76205 49.2438C8.62356 48.2654 7.56519 47.1974 6.59717 46.05C6.58983 46.0363 6.58003 46.0241 6.56827 46.0139C2.31885 40.9741 -0.00814954 34.5921 2.14455e-05 28V0H19.9215C20.0805 0.433548 20.2322 0.867096 20.3695 1.30787L20.3767 1.31508C20.3774 1.32741 20.3799 1.3396 20.384 1.35122H20.3912V1.37289C20.3908 1.37682 20.3911 1.38079 20.3924 1.38454C20.3937 1.38829 20.3958 1.39172 20.3984 1.39457H20.4056C20.4121 1.42213 20.4218 1.44881 20.4346 1.47405L20.5213 1.75586C20.7669 2.5218 20.9909 3.29496 21.1933 4.08257C21.3378 4.61005 21.4678 5.15197 21.5907 5.69391C21.8147 6.67662 22.0098 7.68102 22.176 8.69986C22.2121 8.94554 22.2555 9.18399 22.2844 9.42967C22.3711 10.0294 22.4506 10.6291 22.5156 11.2361C22.5445 11.4601 22.5662 11.6913 22.5806 11.9153C22.624 12.3344 22.6529 12.7608 22.6818 13.1799C22.754 14.242 22.7902 15.3115 22.7902 16.3881Z" fill="url(#paint2_linear_320_11604)"/>
  <g style="mix-blend-mode:multiply" opacity="0.15">
    <path d="M14.0688 52.2931C12.5412 51.4132 11.0994 50.3923 9.76221 49.2438C15.8396 42.7754 20.0061 34.7498 21.7994 26.0573C23.5928 17.3648 22.9429 8.34551 19.9217 0C19.9217 0 32.509 19.6469 14.0688 52.2931Z" fill="#BBBBBB"/>
  </g>
  <g style="mix-blend-mode:multiply" opacity="0.15">
    <path d="M26.8582 55.9783C24.8128 55.8948 22.7826 55.5895 20.803 55.0679C28.7137 51.0599 35.3588 44.9378 40.0005 37.3815C44.6422 29.8252 47.0988 21.1303 47.0977 12.2623C47.0974 10.5995 47.013 8.93789 46.8448 7.28369C46.8448 7.28369 54.3495 34.496 26.8582 55.9783Z" fill="#BBBBBB"/>
  </g>
  <g style="mix-blend-mode:multiply" opacity="0.25">
    <path d="M47.3292 15.6482C47.2858 16.2408 47.2425 16.8622 47.1991 17.5126C47.1413 18.1557 47.1413 18.8493 47.0185 19.5357C46.9173 20.2294 46.8089 20.952 46.7006 21.6891C46.6138 22.4333 46.4043 23.1703 46.2453 23.9362C46.0937 24.7245 45.8983 25.5037 45.66 26.2702C45.4216 27.0506 45.1831 27.8382 44.9375 28.6475C44.6484 29.4351 44.3376 30.2227 44.0197 31.0247C43.7307 31.834 43.3261 32.6 42.9648 33.3876L42.4084 34.5654C42.2133 34.9556 41.9893 35.3314 41.7798 35.7143C41.339 36.4586 40.9488 37.2461 40.4575 37.9615C39.9806 38.6841 39.5037 39.4067 39.0268 40.1221C38.046 41.4818 36.9944 42.7891 35.8763 44.0385C34.8347 45.2082 33.735 46.3247 32.5813 47.384C32.0105 47.8681 31.4541 48.3378 30.9194 48.793C30.6521 49.017 30.3847 49.2337 30.1246 49.4505C29.8572 49.6528 29.5826 49.848 29.3225 50.0359C28.795 50.4188 28.2964 50.7801 27.8123 51.127C27.3282 51.4738 26.8368 51.7411 26.3961 52.0302C25.4928 52.5721 24.7269 53.0706 24.0405 53.403C22.7904 54.0533 22.0317 54.4219 21.9377 54.4652C21.9518 54.4622 21.9645 54.4546 21.9739 54.4435C29.5754 50.33 35.9235 44.2379 40.3462 36.812C44.7689 29.3861 47.1018 20.9026 47.098 12.2593C47.098 11.1393 47.0618 10.0339 46.9824 8.93555C47.004 9.11619 47.0907 9.93993 47.2064 11.255C47.228 11.638 47.2858 12.0281 47.2858 12.5122C47.2931 12.9602 47.3003 13.4516 47.3075 13.9791C47.3147 14.5066 47.322 15.0586 47.3292 15.6482Z" fill="#BBBBBB"/>
  </g>
  <g style="mix-blend-mode:multiply" opacity="0.25">
    <path d="M10.5302 48.4053H10.5385C10.5302 48.4218 10.5219 48.4218 10.5137 48.4301C10.5137 48.4218 10.5219 48.4135 10.5302 48.4053Z" fill="#BBBBBB"/>
  </g>
  <g style="mix-blend-mode:multiply" opacity="0.25">
    <path d="M20.3885 1.3506C20.3922 1.3654 20.397 1.3799 20.4029 1.39394H20.3957C20.3885 1.37949 20.3885 1.36505 20.3812 1.3506C20.3771 1.33897 20.3747 1.32678 20.374 1.31445C20.3796 1.32618 20.3844 1.33825 20.3885 1.3506Z" fill="#BBBBBB"/>
  </g>
  <g style="mix-blend-mode:multiply" opacity="0.25">
    <path d="M23.4118 17.022C23.4244 18.5639 23.352 20.1053 23.195 21.6392C23.0379 23.221 22.7992 24.7934 22.4796 26.3505C22.3134 27.1381 22.14 27.9185 21.9233 28.6844L21.6125 29.8333C21.4897 30.209 21.3741 30.5848 21.2513 30.9605C21.1284 31.3363 21.0128 31.712 20.89 32.0805C20.7527 32.4418 20.6154 32.8103 20.4781 33.1644C20.2107 33.8942 19.9073 34.5879 19.6038 35.2743C19.3147 35.968 18.9896 36.6255 18.6644 37.2686C18.3393 37.9117 17.9996 38.5331 17.66 39.1257C17.3349 39.7254 16.9953 40.2962 16.6412 40.8382C16.2944 41.3801 15.962 41.9076 15.6151 42.3917C15.2683 42.8758 14.9504 43.3527 14.618 43.7791C14.2856 44.2054 13.9604 44.61 13.6569 44.9858C13.0428 45.7373 12.4719 46.3587 12.0239 46.8862C11.1857 47.7605 10.651 48.288 10.5354 48.4036C18.4423 39.6157 22.8089 28.2075 22.7904 16.3861C22.7916 11.2938 21.9868 6.2333 20.4058 1.39258C20.442 1.47929 20.4998 1.63103 20.5865 1.8478C20.7238 2.18742 20.9261 2.69321 21.1429 3.35076C21.7634 5.16683 22.2583 7.02342 22.6242 8.90738C22.8756 10.1689 23.0637 11.4423 23.1878 12.7226C23.3451 14.1502 23.4199 15.5858 23.4118 17.022Z" fill="#BBBBBB"/>
  </g>
  <g style="mix-blend-mode:screen" opacity="0.4">
    <path d="M47.0981 12.2633C47.102 20.9065 44.7692 29.39 40.3464 36.8159C35.9237 44.2419 29.5757 50.3339 21.9741 54.4475C22.1403 54.3319 22.8195 53.8694 23.8962 53.1613C24.5393 52.7784 25.2546 52.2075 26.0856 51.5861C26.9382 50.9864 27.8269 50.2132 28.8024 49.3967C29.0481 49.1871 29.301 48.9776 29.5539 48.768C29.7924 48.5368 30.0381 48.3056 30.2838 48.0671C30.7896 47.5975 31.3026 47.1061 31.8373 46.6075C32.82 45.5309 33.9183 44.4542 34.9083 43.2042C35.9704 42.0191 36.8881 40.6607 37.8853 39.3239C38.3405 38.623 38.7958 37.9221 39.251 37.214C39.7207 36.5131 40.0892 35.7472 40.5155 35.0173C40.7251 34.6488 40.949 34.2875 41.1369 33.9118L41.6861 32.7701C42.0474 32.0114 42.452 31.2744 42.741 30.4868C43.0517 29.7208 43.3625 28.9549 43.6732 28.1962C43.9333 27.423 44.1934 26.6571 44.4463 25.9056C44.7282 25.1614 44.8799 24.3882 45.0967 23.6584C45.2918 22.9141 45.5301 22.206 45.6458 21.4834C45.9276 20.0527 46.2383 18.7015 46.3756 17.437C46.4695 16.8083 46.5563 16.2014 46.6358 15.6233C46.6863 15.038 46.7297 14.4816 46.7731 13.9614C46.8164 13.4411 46.8525 12.9498 46.8886 12.5018C46.9319 12.0754 46.9103 11.6419 46.9248 11.2662C46.9465 9.94384 46.9753 9.1201 46.9825 8.93945C47.062 10.0378 47.0981 11.1433 47.0981 12.2633Z" fill="white"/>
  </g>
  <g style="mix-blend-mode:screen" opacity="0.4">
    <path d="M22.7903 16.3875C22.8089 28.2089 18.4422 39.6171 10.5353 48.405C10.5281 48.4194 10.5209 48.4194 10.5137 48.4267C10.5137 48.4194 10.5209 48.4122 10.5281 48.405C10.6293 48.2677 11.0773 47.6607 11.8143 46.6997C12.2045 46.1361 12.7031 45.4713 13.2233 44.6693C13.7436 43.8672 14.3289 42.9567 14.9142 41.9451C15.2249 41.4465 15.5139 40.9118 15.8102 40.3555C16.1064 39.7991 16.4244 39.2282 16.7134 38.6213C17.0169 38.0215 17.3204 37.4073 17.595 36.757C17.8695 36.1067 18.1802 35.4636 18.4331 34.7844C18.7077 34.1051 18.9823 33.4187 19.2135 32.7033C19.4664 32.0024 19.7049 31.2799 19.9217 30.5501C20.0373 30.1815 20.1457 29.813 20.2613 29.4445L20.5503 28.3245C20.7526 27.5802 20.9116 26.8215 21.0633 26.0628C21.3887 24.5518 21.6371 23.0252 21.8076 21.4889C21.9738 19.9715 22.1038 18.4685 22.14 17.0089C22.2821 12.4478 21.8549 7.88692 20.8682 3.43163C20.6298 2.34053 20.4564 1.62517 20.3986 1.39394C20.3913 1.37949 20.3913 1.36505 20.3841 1.3506C20.38 1.33897 20.3775 1.32678 20.3769 1.31445C20.3824 1.32618 20.3873 1.33825 20.3913 1.3506C20.395 1.3654 20.3999 1.3799 20.4058 1.39394C21.9867 6.23468 22.7915 11.2951 22.7903 16.3875Z" fill="white"/>
  </g>
  <g style="mix-blend-mode:multiply" opacity="0.25">
    <path d="M56 27.9999C55.9997 35.4258 53.0497 42.5476 47.7988 47.7986C42.5478 53.0496 35.426 55.9996 28 55.9998C28 55.9998 28.2457 55.9782 28.7081 55.9348C29.1778 55.9059 29.8498 55.8047 30.7024 55.6891C31.5551 55.5518 32.5812 55.3495 33.7373 55.0605C35.0207 54.7104 36.2824 54.2857 37.5164 53.7887C38.9627 53.1869 40.3592 52.4717 41.6929 51.6499C43.1652 50.7283 44.5553 49.6815 45.8477 48.5211C47.2213 47.2782 48.4722 45.9062 49.5835 44.4241C50.7367 42.9039 51.7227 41.2638 52.5244 39.5322C53.3434 37.8064 53.9803 35.9998 54.4247 34.1418C54.8542 32.3422 55.1107 30.5058 55.1907 28.6574C55.2607 26.9193 55.1785 25.1786 54.945 23.4548C54.7293 21.9052 54.3885 20.3756 53.9262 18.8809C53.5303 17.6085 53.0523 16.363 52.4954 15.1524C51.9824 14.0758 51.4911 13.1509 51.0503 12.4138C50.6095 11.6768 50.241 11.0987 49.9736 10.723C49.7713 10.434 49.6485 10.2533 49.5979 10.1738C53.7459 15.1872 56.0106 21.493 56 27.9999Z" fill="#BBBBBB"/>
  </g>
  <g style="mix-blend-mode:screen" opacity="0.4">
    <path d="M4.51614 0.628641L0.758723 0.72258L0.845425 5.95405C0.881554 7.93392 0.87435 9.92102 0.888802 11.9081C0.903253 13.8952 0.903253 15.8751 0.888802 17.8549C0.87435 19.8348 0.881554 21.8219 0.845425 23.809L0.794867 26.786L0.7804 28.2529C0.787626 28.7514 0.773175 29.2572 0.802078 29.7269C0.832853 30.6895 0.917286 31.6496 1.05498 32.6028C1.19227 33.5638 1.38738 34.5176 1.61138 35.4642C1.8402 36.4084 2.11998 37.3394 2.44955 38.2534C2.77471 39.1783 3.15769 40.0815 3.56957 40.9703C4.00311 41.8446 4.44388 42.7261 4.96414 43.5716C5.45549 44.4025 6.00466 45.219 6.56827 46.0139C2.31885 40.9741 -0.00814954 34.5921 2.14455e-05 28V0H18.0645C15.0513 0.216774 12.0454 0.346834 9.03225 0.469672L4.51614 0.628641Z" fill="white"/>
  </g>
</svg>