<svg width="67" height="22" viewBox="0 0 67 22" fill="none" xmlns="http://www.w3.org/2000/svg">
<defs>
<clipPath id="clip0_329_12950">
<rect width="67" height="22" fill="white"/>
</clipPath>
</defs>
<g clip-path="url(#clip0_329_12950)">
<path d="M20.7432 17.7236C20.1427 18.4462 19.4559 19.0995 18.6966 19.6705C17.052 20.901 15.0839 21.6771 13.0076 21.9137C10.2396 22.2492 7.43765 21.6188 5.11937 20.1391C2.80109 18.6594 1.1231 16.4304 0.395315 13.8636C-1.31828 7.87733 2.59658 1.64907 8.93974 0.272671C9.47578 0.153893 10.0205 0.0740798 10.5693 0.0339232C10.6012 0.0339232 10.6382 0.0339239 10.6517 -0.00292969H10.8198C10.8974 0.027518 10.9844 0.027518 11.062 -0.00292969H12.071C12.1485 0.027518 12.2355 0.027518 12.3131 -0.00292969H12.5149C12.7431 0.0573038 12.9778 0.092251 13.2145 0.101221C17.0503 0.692481 19.904 2.61367 21.7908 5.83756C22.3079 6.73352 22.6777 7.69974 22.8873 8.70253C22.862 8.78585 22.7864 8.8195 22.7191 8.86276C21.3166 9.60785 20.4943 10.7647 20.0924 12.218C19.8709 13.0945 19.8078 14.0005 19.9057 14.8971C19.958 15.5925 20.1219 16.2761 20.3917 16.9241C20.4775 17.126 20.5918 17.3151 20.6877 17.5121C20.718 17.5762 20.7701 17.6419 20.7432 17.7236Z" fill="#E62A27"/>
<path d="M11.0635 0C11.0304 0.0287117 10.9872 0.044623 10.9424 0.044623C10.8976 0.044623 10.8545 0.0287117 10.8214 0H11.0635Z" fill="#EE6F57"/>
<path d="M12.3129 0C12.2796 0.0283779 12.2365 0.044068 12.1919 0.044068C12.1472 0.044068 12.1041 0.0283779 12.0708 0H12.3129Z" fill="#ED6D54"/>
<path d="M48.6329 16.02C49.0163 15.1499 49.3492 14.3039 49.662 13.4562C50.253 11.844 50.7581 10.2043 51.1755 8.54349C51.2075 8.4153 51.2646 8.40088 51.379 8.40088C52.4126 8.40088 53.4474 8.40088 54.4833 8.40088C54.6363 8.40088 54.675 8.4185 54.6279 8.57713C54.0673 10.5256 53.4093 12.4441 52.6536 14.3327C51.9239 16.2093 51.0766 18.0425 50.1161 19.8223C50.0932 19.8802 50.0507 19.9292 49.9952 19.9615C49.9397 19.9937 49.8745 20.0073 49.81 20.0002C49.0247 19.9905 48.2377 19.9921 47.4557 20.0002C47.3952 20.0081 47.3336 19.9967 47.2807 19.9677C47.2277 19.9387 47.1864 19.8937 47.1631 19.8399C45.9556 17.5926 44.9182 15.266 44.0588 12.8778C43.5291 11.4357 43.0498 9.9936 42.6277 8.51945C42.6277 8.48901 42.6143 8.45856 42.6075 8.4185C42.6614 8.4185 42.7068 8.40889 42.7522 8.40889C43.8015 8.40889 44.8492 8.40889 45.8968 8.40889C46.0381 8.40889 46.0768 8.46497 46.1037 8.56912C46.6781 10.8565 47.4204 13.1026 48.3251 15.2909C48.4126 15.5152 48.5202 15.7524 48.6329 16.02Z" fill="#043F5D"/>
<path d="M33.5318 14.7012C33.5318 13.0188 33.5318 11.3369 33.5318 9.65548C33.527 9.59677 33.5404 9.53801 33.5703 9.48646C33.6002 9.43492 33.6453 9.39285 33.7 9.36546C34.8137 8.69431 36.085 8.29732 37.3996 8.21018C38.4706 8.12859 39.5485 8.20589 40.5947 8.43932C40.7376 8.46976 40.7864 8.50181 40.7528 8.66204C40.5846 9.42315 40.4434 10.1891 40.3004 10.955C40.2735 11.104 40.2264 11.1152 40.0835 11.0816C39.2578 10.8604 38.4321 10.822 37.6148 11.1232C36.9926 11.3524 36.9909 11.3588 36.9909 11.9805C36.9909 14.5698 36.9909 17.1592 36.9909 19.7486C36.9909 19.9537 36.927 19.9841 36.7353 19.9825C35.7331 19.9729 34.7319 19.9729 33.7319 19.9825C33.5637 19.9825 33.5167 19.9457 33.5184 19.7838C33.5296 18.0907 33.534 16.3965 33.5318 14.7012Z" fill="#043F5D"/>
<path d="M20.035 4.92128C19.7373 5.68078 19.4582 6.41144 19.1639 7.1357C17.6549 10.851 15.9732 14.4957 14.1189 18.07C13.8146 18.6597 13.5018 19.2445 13.1991 19.8326C13.1798 19.8824 13.1434 19.9246 13.0957 19.9522C13.0481 19.9798 12.9921 19.9913 12.9368 19.9848C12.0163 19.9784 11.0959 19.9784 10.1755 19.9848C10.1236 19.9901 10.0713 19.9788 10.0268 19.9527C9.9824 19.9266 9.94832 19.8872 9.92997 19.8406C7.39117 15.0916 5.15009 10.2034 3.21854 5.20168C3.17262 5.11225 3.14413 5.01561 3.13446 4.91647H4.02237C4.98259 4.91647 5.94448 4.91647 6.9047 4.91647C6.95905 4.90757 7.01491 4.91938 7.06021 4.94935C7.10551 4.97933 7.13662 5.02506 7.14686 5.0767C8.46078 8.60183 9.90307 12.0784 11.4737 15.5063C11.4989 15.5592 11.5259 15.6104 11.5645 15.6905C11.7192 15.3589 11.8656 15.0496 12.0068 14.7372C13.4362 11.5581 14.7608 8.34011 15.9805 5.08311C16.0108 5.00299 16.0192 4.92288 16.1487 4.92288C17.4419 4.92288 18.7182 4.92128 20.035 4.92128Z" fill="white"/>
<path d="M66.9597 12.8765C66.8979 12.2986 66.7612 11.7302 66.5527 11.1844C66.0482 9.87208 65.1536 8.89787 63.7377 8.42197C62.8359 8.13671 61.878 8.05014 60.936 8.16881C58.6339 8.40595 56.8648 9.79357 56.1955 11.9006C55.8072 13.1762 55.7598 14.5241 56.0576 15.8215C56.2509 16.8731 56.7725 17.8448 57.5543 18.6096C58.5969 19.6046 59.9086 20.0645 61.338 20.2119C62.9248 20.3652 64.5279 20.2181 66.055 19.7793C66.5595 19.6383 66.5712 19.6335 66.5124 19.1384C66.4316 18.467 66.3324 17.7972 66.2484 17.1258C66.2349 17.0121 66.2097 16.9656 66.0802 17.0073C65.3696 17.198 64.6433 17.3309 63.9092 17.4046C63.1138 17.4848 62.3133 17.5232 61.5263 17.3373C60.3323 17.0553 59.5083 16.4016 59.1972 15.2287C59.1468 15.0396 59.209 15.0204 59.3839 15.0204C61.7617 15.0204 64.1401 15.0204 66.5191 15.0204C66.8874 15.0204 66.8874 15.0204 66.9698 14.6727C66.9698 14.6631 66.9883 14.6582 67 14.6502V12.971C66.9445 12.955 66.9647 12.9101 66.9597 12.8765ZM63.81 12.7162C63.0583 12.7162 62.3066 12.7162 61.5549 12.7162H59.3435C59.2628 12.7162 59.1535 12.7483 59.1754 12.6025C59.2981 11.9455 59.5403 11.3446 60.0969 10.9072C60.3749 10.6953 60.6999 10.5468 61.0473 10.4728C61.3947 10.3989 61.7552 10.4015 62.1013 10.4804C62.4475 10.5594 62.7702 10.7127 63.0447 10.9285C63.3192 11.1444 63.5384 11.4171 63.6855 11.726C63.8077 11.9949 63.898 12.276 63.9546 12.564C63.9865 12.7082 63.9327 12.7178 63.81 12.7178V12.7162Z" fill="#043F5D"/>
<path d="M26.047 8.13176C24.9576 8.07452 23.8701 8.27143 22.8788 8.7054C22.012 9.12361 21.2812 9.759 20.7649 10.5433C19.8299 11.9854 19.6803 13.5605 19.872 15.19C19.9724 16.0805 20.2668 16.9411 20.7364 17.7169C20.7506 17.7296 20.7635 17.7436 20.775 17.7586C21.6663 19.0853 22.9797 19.7903 24.5621 20.1012C25.5738 20.2823 26.6084 20.3174 27.6311 20.2053C28.5459 20.1237 29.4483 19.9452 30.3217 19.6733C30.4411 19.6349 30.5084 19.5964 30.4899 19.449C30.3772 18.6767 30.2763 17.9028 30.1788 17.1305C30.1636 17.0167 30.1468 16.9702 30.0106 17.0039C29.3073 17.1939 28.5884 17.3263 27.8615 17.3996C27.0576 17.483 26.2504 17.5214 25.4567 17.3355C24.2796 17.0632 23.4623 16.4286 23.1428 15.2846C23.0705 15.0234 23.0721 15.0218 23.3547 15.0218C25.7796 15.0218 28.2056 15.0218 30.6328 15.0218C30.7825 15.0218 30.8514 15.0026 30.8733 14.8359C31.0275 13.6917 30.9244 12.5294 30.5706 11.4262C29.9282 9.41684 28.2533 8.20547 26.047 8.13176ZM27.3923 12.716H23.2605C23.1848 12.716 23.0923 12.7433 23.1108 12.6087C23.2201 11.8412 23.6859 10.8381 24.7252 10.5449C25.9242 10.2068 27.3149 10.5705 27.7959 12.1969C27.9523 12.7144 27.9489 12.716 27.3923 12.716Z" fill="#043F5D"/>
</g>
</svg>
