<svg width="58" height="18" viewBox="0 0 58 18" fill="none" xmlns="http://www.w3.org/2000/svg">
<defs>
<clipPath id="clip0_329_12951">
<rect width="57.1667" height="16.3334" fill="white" transform="translate(0.833252 0.833496)"/>
</clipPath>
</defs>
<g clip-path="url(#clip0_329_12951)">
<path d="M20.9716 16.931L23.8648 1.10791H28.4951L25.5972 16.931H20.9716Z" fill="#005098"/>
<path d="M42.3846 1.49721C41.0558 1.04929 39.6524 0.824491 38.2394 0.833254C33.6667 0.833254 30.4453 2.97881 30.4165 6.05539C30.3909 8.32777 32.7156 9.5975 34.472 10.354C36.2733 11.1298 36.8737 11.6252 36.8737 12.3175C36.8608 13.3783 35.4327 13.8617 34.1022 13.8617C32.2513 13.8617 31.2667 13.623 29.7472 13.0322L29.1516 12.78L28.5016 16.3236C29.5807 16.7712 31.5805 17.1472 33.6571 17.1666C38.5228 17.1666 41.6801 15.0449 41.7153 11.7595C41.7345 9.96006 40.5017 8.59037 37.8311 7.4609C36.214 6.72831 35.2213 6.24041 35.2325 5.49887C35.2325 4.84237 36.0715 4.13812 37.8839 4.13812C39.0705 4.11293 40.2496 4.31927 41.3455 4.74389L41.7634 4.92741L42.3894 1.49572L42.3846 1.49721Z" fill="#005098"/>
<path d="M54.2503 1.12305H50.6767C49.5687 1.12305 48.7393 1.40504 48.2526 2.43604L41.3792 16.9372H46.2448C46.2448 16.9372 47.0374 14.9871 47.2183 14.5589L53.1423 14.5663C53.28 15.1199 53.7043 16.9372 53.7043 16.9372H58.0016L54.2503 1.12305ZM48.544 11.3226C48.9267 10.411 50.3869 6.89873 50.3869 6.89873C50.3612 6.942 50.7679 5.98262 51.0001 5.38879L51.3203 6.75251C51.3203 6.75251 52.2057 10.5304 52.393 11.3226H48.544Z" fill="#005098"/>
<path d="M17.0904 1.12012L12.5578 11.9105L12.0774 9.71874C11.2353 7.18974 8.60628 4.45035 5.6731 3.07917L9.8151 16.9193H14.7128L21.9994 1.12609L17.0904 1.12012Z" fill="#005098"/>
<path d="M8.35515 1.10938H0.889291L0.833252 1.43911C6.63879 2.74913 10.4814 5.91524 12.0745 9.71844L10.4526 2.44475C10.1724 1.44359 9.36063 1.14518 8.35515 1.10938Z" fill="#F7A600"/>
</g>
</svg>
